<svg width="199" height="185" viewBox="0 0 199 185" fill="none" xmlns="http://www.w3.org/2000/svg">
<g clip-path="url(#clip0_28_240)">
<path d="M84.6306 74.8331L99.4994 0L75.142 61.9207L0.749023 54.5842L60.2732 108.239L45.2576 172.752L93.2389 138.71L59.3928 154.459L75.7778 104.375C75.7778 104.375 44.2794 74.5397 41.4426 71.8985L84.6306 74.8331Z" fill="url(#paint0_linear_28_240)"/>
<path d="M123.857 66.3229L102.336 18.4395L114.368 77.1321L157.556 83.9796L123.221 108.679L139.606 162.481L105.76 138.955L153.741 183.904L138.725 116.016L198.25 75.8604L123.857 66.3229Z" fill="url(#paint1_linear_28_240)"/>
<path d="M73.2349 26.1672C75.6804 36.634 70.447 46.7585 61.5942 48.8617C52.7414 50.9648 43.5462 44.1173 41.1007 33.6505C38.6551 23.1836 43.8886 13.0591 52.7414 10.956C61.5942 8.85284 70.7894 15.7492 73.2349 26.1672Z" fill="url(#paint2_radial_28_240)"/>
<path d="M129.579 34.2374C127.134 44.7042 132.367 54.8287 141.22 56.9319C150.073 59.035 159.268 52.1876 161.713 41.7207C164.159 31.2538 158.926 21.1294 150.073 19.0262C141.171 16.972 131.976 23.7705 129.579 34.2374Z" fill="url(#paint3_radial_28_240)"/>
</g>
<defs>
<linearGradient id="paint0_linear_28_240" x1="105.666" y1="141.414" x2="24.831" y2="7.71124" gradientUnits="userSpaceOnUse">
<stop stop-color="#672486"/>
<stop offset="1" stop-color="#BD2BA3"/>
</linearGradient>
<linearGradient id="paint1_linear_28_240" x1="102.353" y1="101.18" x2="198.255" y2="101.18" gradientUnits="userSpaceOnUse">
<stop stop-color="#FF7741"/>
<stop offset="1" stop-color="#FAB71B"/>
</linearGradient>
<radialGradient id="paint2_radial_28_240" cx="0" cy="0" r="1" gradientUnits="userSpaceOnUse" gradientTransform="translate(45.6984 14.582) scale(37.5898 37.5898)">
<stop stop-color="#BD2BA3"/>
<stop offset="1" stop-color="#672486"/>
</radialGradient>
<radialGradient id="paint3_radial_28_240" cx="0" cy="0" r="1" gradientUnits="userSpaceOnUse" gradientTransform="translate(158.253 23.45) scale(42.0647 42.0647)">
<stop stop-color="#FAB71B"/>
<stop offset="1" stop-color="#FF7741"/>
</radialGradient>
<clipPath id="clip0_28_240">
<rect width="197.5" height="184.062" fill="white" transform="translate(0.75)"/>
</clipPath>
</defs>
</svg>
