<?xml version="1.0" standalone="no"?>
<!DOCTYPE svg PUBLIC "-//W3C//DTD SVG 20010904//EN"
 "http://www.w3.org/TR/2001/REC-SVG-20010904/DTD/svg10.dtd">
<svg version="1.0" xmlns="http://www.w3.org/2000/svg"
 width="800.000000pt" height="800.000000pt" viewBox="0 0 800.000000 800.000000"
 preserveAspectRatio="xMidYMid meet">
<metadata>
Created by potrace 1.14, written by Peter Selinger 2001-2017
</metadata>
<g transform="translate(0.000000,800.000000) scale(0.100000,-0.100000)"
fill="#000000" stroke="none">
<path d="M4047 7663 c-3 -5 -26 -62 -52 -128 -26 -66 -53 -133 -60 -150 -7
-16 -34 -86 -60 -155 -26 -69 -56 -143 -65 -165 -10 -22 -47 -116 -83 -210
-36 -93 -71 -183 -78 -200 -7 -16 -13 -32 -14 -35 -1 -3 -6 -16 -12 -30 -6
-14 -19 -50 -31 -80 -11 -30 -27 -68 -36 -85 -9 -16 -16 -34 -16 -39 0 -8
-127 -338 -151 -391 -4 -11 -34 -85 -64 -165 -31 -80 -60 -154 -65 -165 -5
-11 -39 -96 -75 -190 -96 -246 -98 -251 -112 -248 -5 1 -43 4 -84 7 -104 8
-177 15 -227 21 -24 3 -69 8 -100 11 -31 2 -75 6 -97 9 -22 2 -69 7 -105 10
-36 3 -81 7 -100 10 -84 9 -177 18 -202 18 -16 1 -28 3 -28 6 0 3 -19 6 -43 7
-37 0 -82 4 -230 19 -23 2 -71 7 -107 10 -36 4 -78 8 -95 10 -16 2 -61 6 -100
10 -38 3 -88 8 -110 11 -22 2 -60 6 -85 8 -94 9 -167 16 -215 21 -27 3 -77 7
-110 10 -33 3 -76 7 -95 10 -19 2 -64 7 -100 10 -36 3 -81 8 -100 10 -41 5
-135 14 -200 20 -25 2 -72 6 -105 10 -69 8 -112 12 -209 20 -38 3 -72 6 -75 7
-31 3 -33 -5 -6 -28 17 -14 64 -56 106 -95 42 -38 86 -78 99 -89 24 -21 138
-123 200 -180 127 -115 177 -161 196 -177 48 -42 190 -170 221 -201 18 -18 33
-31 33 -29 0 3 17 -12 38 -32 21 -20 63 -58 94 -86 147 -133 234 -212 250
-227 10 -10 18 -16 18 -14 0 2 19 -15 43 -38 45 -43 70 -65 227 -206 52 -47
115 -104 140 -127 25 -23 56 -51 69 -62 54 -47 155 -137 180 -161 14 -14 69
-63 121 -110 52 -46 104 -93 115 -104 11 -12 49 -46 85 -76 88 -75 109 -100
104 -127 -2 -12 -16 -71 -30 -130 -30 -126 -28 -118 -48 -208 -9 -38 -30 -128
-47 -200 -17 -71 -32 -138 -34 -148 -2 -10 -6 -26 -9 -35 -3 -9 -7 -29 -10
-45 -3 -15 -7 -35 -10 -45 -3 -9 -8 -28 -10 -42 -3 -14 -15 -63 -26 -110 -12
-47 -23 -94 -24 -105 -2 -11 -8 -38 -14 -60 -6 -22 -13 -51 -16 -65 -2 -14 -9
-45 -15 -70 -7 -25 -14 -56 -17 -70 -3 -14 -10 -43 -16 -65 -5 -22 -12 -51
-14 -64 -3 -12 -12 -53 -20 -90 -9 -36 -17 -73 -19 -81 -4 -20 -44 -189 -52
-220 -3 -14 -8 -34 -10 -45 -2 -11 -8 -38 -14 -60 -6 -22 -13 -50 -15 -63 -3
-12 -14 -62 -25 -110 -12 -48 -22 -94 -24 -102 -2 -8 -13 -55 -25 -105 -12
-49 -24 -101 -26 -115 -3 -14 -9 -40 -14 -58 -5 -19 -5 -32 1 -32 5 0 35 20
68 45 32 25 64 45 70 45 6 0 11 4 11 9 0 5 15 18 32 30 60 38 72 46 84 56 6 6
20 16 30 23 23 15 325 228 339 239 6 5 33 24 60 43 28 19 52 38 53 42 2 4 8 8
12 8 5 0 74 47 154 105 80 58 150 105 156 105 5 0 10 3 10 8 0 4 24 23 53 42
28 19 54 37 57 40 13 13 79 60 85 60 3 0 11 5 18 10 35 30 63 50 142 105 110
76 256 181 272 195 7 5 16 10 22 10 5 0 11 4 13 8 2 5 26 23 53 42 28 19 56
40 63 47 7 7 18 13 24 13 6 0 9 3 5 6 -3 3 -23 -3 -44 -14 -37 -19 -93 -46
-252 -119 -42 -19 -103 -48 -136 -63 -33 -15 -95 -44 -137 -64 -43 -20 -111
-51 -150 -70 -408 -191 -600 -278 -604 -274 -2 3 14 58 36 124 23 65 43 126
45 135 3 17 112 352 122 379 4 8 7 17 8 20 1 3 4 12 8 20 5 12 54 171 64 205
1 6 14 44 29 85 14 41 27 80 28 85 3 15 86 267 95 290 7 16 82 248 86 265 1 3
4 12 8 20 10 26 47 145 47 152 1 4 7 23 16 43 8 19 14 37 14 40 0 3 3 10 5 17
3 7 12 36 20 63 l15 50 -82 79 c-112 106 -236 224 -413 391 -81 77 -183 174
-227 215 -43 41 -121 116 -174 165 -53 50 -120 113 -149 140 -29 28 -112 106
-184 174 -125 118 -152 151 -113 136 9 -3 55 -9 102 -11 90 -5 168 -10 290
-18 41 -3 111 -8 155 -11 284 -19 340 -23 340 -24 0 -1 36 -3 80 -6 148 -9
230 -14 315 -20 96 -8 157 -12 311 -20 l106 -6 17 83 c9 46 18 92 20 103 2 18
10 59 23 120 2 11 8 43 13 70 6 28 12 59 14 70 29 140 47 236 51 260 2 17 9
50 15 75 6 25 13 56 15 70 4 23 13 70 19 95 2 6 7 33 11 60 5 28 10 52 10 55
2 8 17 83 21 103 2 10 5 26 8 35 3 9 7 34 10 54 3 21 11 59 17 85 6 27 13 58
15 71 2 12 6 32 9 45 2 12 7 36 10 52 3 17 8 41 11 55 3 14 8 35 10 48 6 34
11 59 40 207 4 17 8 39 9 50 2 11 4 20 5 20 1 0 4 11 6 25 3 14 15 79 29 145
13 66 26 134 29 150 3 17 8 41 11 55 3 14 8 39 10 55 3 17 7 41 11 55 3 14 7
34 9 45 2 11 4 20 5 20 2 0 6 19 14 65 5 34 30 161 41 210 3 14 8 39 10 55 13
72 36 179 41 187 3 4 3 8 0 8 -3 0 -7 -3 -9 -7z"/>
<path d="M2237 7274 c-1 -2 -14 -5 -27 -7 -148 -28 -296 -133 -386 -272 -21
-33 -39 -62 -40 -65 0 -3 -10 -25 -21 -50 -11 -25 -26 -70 -33 -100 -7 -30
-16 -70 -21 -88 -13 -54 -4 -271 14 -338 49 -181 117 -303 236 -421 46 -46 90
-83 98 -83 7 0 13 -4 13 -8 0 -9 84 -53 145 -76 206 -78 449 -22 609 141 80
81 162 225 181 322 3 14 8 35 10 46 3 11 7 31 10 45 10 43 6 223 -5 280 -52
270 -206 492 -418 603 -88 47 -174 68 -279 71 -45 2 -84 2 -86 0z"/>
<path d="M5890 6950 c-108 -13 -218 -57 -308 -125 -84 -63 -104 -83 -161 -159
-97 -128 -162 -291 -173 -433 -1 -18 -6 -33 -10 -33 -4 0 -5 -6 -3 -12 2 -7 6
-56 9 -108 6 -105 13 -156 27 -182 5 -10 8 -18 5 -18 -3 0 7 -28 21 -62 122
-301 404 -460 698 -394 40 9 140 49 156 62 8 8 20 14 25 14 5 0 22 10 38 23
39 30 166 147 160 147 -3 0 4 10 16 22 11 12 20 25 20 29 0 4 6 14 13 21 8 7
32 51 55 98 116 235 125 510 23 734 -38 85 -83 149 -149 213 -55 55 -159 123
-185 123 -9 0 -18 4 -21 8 -5 8 -105 29 -171 35 -16 2 -55 0 -85 -3z"/>
<path d="M4184 6903 c5 -19 6 -23 31 -143 8 -41 17 -84 20 -95 2 -11 13 -65
24 -120 19 -97 25 -122 36 -175 3 -14 7 -36 10 -50 3 -14 8 -38 11 -55 4 -16
8 -39 10 -50 2 -11 6 -31 9 -45 6 -27 23 -109 31 -150 3 -14 10 -43 16 -65 5
-22 12 -57 13 -77 2 -20 6 -41 9 -46 3 -5 8 -27 12 -47 6 -42 6 -41 29 -150
10 -44 19 -89 21 -100 2 -11 5 -27 7 -35 4 -15 16 -73 21 -100 2 -8 6 -33 11
-55 4 -22 9 -47 10 -55 2 -8 10 -49 19 -90 8 -41 17 -86 20 -100 2 -14 7 -32
10 -40 3 -8 7 -32 10 -52 3 -20 15 -77 25 -125 11 -48 22 -99 24 -113 18 -99
31 -151 38 -155 4 -3 25 -7 46 -9 52 -6 113 -15 143 -23 14 -3 39 -7 55 -9 17
-2 39 -5 50 -8 12 -2 48 -8 80 -12 33 -4 62 -9 65 -9 3 -1 28 -5 55 -9 28 -4
61 -10 75 -12 14 -2 41 -7 60 -10 19 -3 73 -12 120 -19 47 -8 103 -17 125 -20
22 -3 56 -8 75 -11 19 -4 48 -8 64 -10 17 -2 68 -11 115 -19 48 -8 104 -17
126 -20 22 -4 51 -8 65 -11 14 -2 45 -7 70 -10 25 -3 54 -8 65 -10 11 -3 36
-7 55 -9 19 -3 44 -7 55 -10 26 -5 117 -18 133 -18 22 -1 13 -15 -29 -44 -22
-15 -55 -39 -73 -53 -19 -14 -44 -32 -56 -40 -12 -8 -65 -47 -118 -85 -54 -39
-116 -84 -139 -100 -24 -17 -57 -40 -75 -53 -18 -13 -44 -32 -58 -42 -100 -74
-401 -290 -406 -290 -3 0 -11 -6 -18 -13 -8 -7 -95 -71 -194 -142 -197 -142
-188 -130 -160 -215 7 -19 13 -37 13 -40 1 -3 4 -12 7 -20 3 -8 18 -55 33
-105 41 -138 78 -261 162 -530 13 -44 26 -87 28 -95 2 -8 22 -73 43 -145 145
-472 221 -722 227 -745 2 -8 29 -96 59 -195 30 -99 53 -181 51 -183 -2 -2 -23
10 -47 27 -24 17 -83 59 -133 93 -49 34 -92 64 -95 67 -3 3 -13 11 -22 16 -34
20 -303 209 -316 222 -7 7 -19 13 -27 13 -7 0 -15 4 -17 8 -1 4 -25 23 -53 42
-27 19 -52 37 -55 40 -3 3 -12 10 -21 15 -10 6 -37 24 -60 41 -24 17 -73 51
-109 75 -36 25 -110 76 -165 114 -55 38 -101 73 -103 77 -2 4 -8 8 -14 8 -5 0
-26 12 -46 26 -38 28 42 -52 208 -206 52 -49 123 -115 156 -147 34 -32 112
-105 174 -163 62 -58 129 -121 150 -140 20 -19 87 -82 148 -139 61 -57 136
-127 165 -155 30 -28 112 -105 183 -171 71 -66 155 -145 189 -176 33 -32 80
-76 105 -99 25 -23 97 -91 160 -150 175 -165 213 -200 216 -197 1 1 -11 60
-28 132 -16 72 -31 139 -33 150 -7 38 -16 80 -26 118 -6 21 -12 50 -14 65 -2
15 -29 137 -59 272 -30 135 -60 270 -67 300 -6 30 -18 81 -25 112 -12 48 -45
196 -86 388 -5 25 -11 54 -14 65 -2 11 -7 31 -10 45 -14 61 -65 289 -70 315
-2 11 -8 38 -13 60 -9 35 -64 286 -75 340 -3 11 -10 43 -16 70 -6 28 -14 59
-16 70 -2 11 -6 31 -9 45 -4 14 -8 36 -11 50 -3 14 -7 33 -10 42 -18 61 -16
66 43 105 32 21 60 40 63 43 3 3 12 10 21 15 24 15 162 108 174 117 6 5 26 19
45 31 19 13 158 106 308 207 150 102 283 192 296 200 65 42 172 114 176 119 3
4 37 27 75 51 39 25 76 50 83 57 7 7 17 13 22 13 5 0 15 6 22 13 7 7 94 66
193 132 99 66 182 122 185 125 5 5 321 219 347 235 9 6 47 31 85 58 37 26 73
47 78 47 6 0 10 3 10 8 0 4 29 25 65 47 35 22 65 43 65 48 0 4 -11 8 -25 8
-14 1 -28 2 -32 3 -5 1 -42 6 -83 11 -41 5 -77 9 -80 10 -6 1 -123 16 -160 20
-14 2 -41 6 -60 9 -54 8 -130 17 -185 22 -27 2 -57 6 -65 9 -8 3 -43 7 -77 10
-35 4 -73 8 -85 10 -13 3 -48 7 -78 11 -30 3 -66 7 -80 10 -14 3 -43 7 -65 9
-61 6 -113 13 -194 25 -40 5 -97 13 -126 15 -28 3 -62 7 -74 10 -13 2 -49 7
-80 10 -31 3 -67 8 -81 11 -26 6 -48 9 -140 19 -30 3 -71 8 -90 10 -19 3 -55
7 -80 10 -25 2 -45 5 -45 5 0 3 -44 9 -105 15 -36 3 -72 8 -80 10 -8 3 -35 7
-60 10 -72 7 -122 14 -165 20 -22 3 -60 8 -85 10 -25 2 -58 6 -75 9 -97 14
-242 33 -310 41 -27 3 -59 7 -70 9 -11 3 -23 5 -26 5 -5 1 -61 115 -64 131 -1
3 -16 36 -33 74 -18 38 -32 70 -32 72 0 1 -19 42 -41 91 -39 82 -66 144 -92
203 -5 14 -10 28 -9 33 1 4 -3 7 -8 7 -6 0 -10 7 -10 15 0 8 -11 35 -25 60
-14 25 -24 45 -21 45 2 0 -9 28 -26 63 -17 34 -57 123 -90 197 -61 137 -78
176 -130 288 -16 35 -30 69 -31 75 -1 7 -4 14 -7 17 -3 3 -28 55 -54 115 -114
258 -174 385 -182 385 -3 0 -3 -8 0 -17z"/>
</g>
</svg>
