<svg width="248" height="104" viewBox="0 0 248 104" fill="none" xmlns="http://www.w3.org/2000/svg">
<path d="M62.7845 0.507121C62.7597 0.546021 62.0798 0.640449 61.2664 0.721457C60.453 0.802466 59.2502 0.937468 58.5963 1.02134C57.9421 1.09576 57.1242 1.2243 56.782 1.29527C56.4399 1.36624 55.8015 1.49683 55.374 1.59027C54.9394 1.67454 54.1736 1.924 53.6717 2.13415C53.1632 2.34457 52.4824 2.56212 52.153 2.62309C51.7971 2.68517 51.3722 2.83532 51.1135 2.98805C50.8676 3.13079 50.3525 3.34148 49.9661 3.46163C49.5792 3.57233 49.0906 3.78192 48.8775 3.91384C48.6648 4.0552 48.2739 4.22287 48.0051 4.30028C47.7429 4.37741 47.3662 4.56344 47.1738 4.71343C46.9752 4.87315 46.6975 5.04561 46.5542 5.10835C46.4109 5.17109 46.0382 5.30014 45.73 5.38864C45.4285 5.47687 44.8161 5.73894 44.3686 5.97523C43.9277 6.21126 43.3126 6.55865 43.0088 6.74166C42.6988 6.9344 42.2318 7.18097 41.9643 7.28672C41.6973 7.40193 41.2258 7.69603 40.9052 7.94602C40.5018 8.27518 40.068 8.52038 39.4225 8.78381C38.9202 8.9845 38.2648 9.32409 37.9623 9.53545C37.6598 9.74682 37.3441 9.95872 37.253 10.0004C37.1619 10.042 37.0067 10.1337 36.897 10.2045C36.7944 10.2845 36.5043 10.4764 36.2526 10.6383C36.0076 10.7999 35.6393 11.0235 35.4442 11.1168C35.2497 11.2195 34.8238 11.4928 34.5027 11.7333C34.1878 11.9641 33.7372 12.2763 33.5041 12.4091C33.2777 12.5415 32.7758 12.8937 32.3835 13.175C31.9982 13.4656 31.6325 13.7458 31.5816 13.7953C31.5307 13.8447 31.3711 13.9839 31.2304 14.1033C31.0898 14.2228 30.801 14.4431 30.5816 14.5847C30.3693 14.7355 30.0367 15.0144 29.8461 15.2022C29.6554 15.39 29.4201 15.6175 29.3113 15.7072C29.2091 15.7967 28.6311 16.2277 28.034 16.6785C27.4299 17.1202 26.8978 17.5399 26.8482 17.6177C26.7916 17.6863 26.3581 18.083 25.8853 18.4908C25.4125 18.8985 24.8366 19.3769 24.6124 19.5566C24.3881 19.7363 24.1139 19.9844 24.0068 20.1119C23.8998 20.2394 23.6056 20.4883 23.3615 20.6688C23.1107 20.8496 22.8418 21.0691 22.7529 21.158C22.6644 21.2563 22.281 21.5847 21.9032 21.8938C21.5255 22.203 21.0544 22.6486 20.8527 22.8842C20.6572 23.11 20.2949 23.4659 20.045 23.6656C19.8022 23.8745 19.516 24.1515 19.4093 24.2884C19.3098 24.4346 18.9683 24.8085 18.6511 25.1341C18.3406 25.4594 17.9552 25.892 17.7982 26.0879C17.6415 26.2932 17.3182 26.6285 17.0687 26.8377C16.8259 27.0466 16.4654 27.4402 16.2791 27.7225C16.0923 27.9954 15.7207 28.4369 15.4602 28.6938C15.1996 28.9508 14.8718 29.3336 14.7351 29.5381C14.5983 29.7426 14.3289 30.0947 14.14 30.3203C13.9511 30.5459 13.5852 30.9681 13.333 31.2626C13.0747 31.5669 12.711 32.0364 12.5176 32.3095C12.3181 32.5924 11.9482 33.0716 11.6902 33.3853C11.4319 33.6895 11.0293 34.1796 10.8028 34.4541C10.57 34.7383 10.0754 35.3932 9.7068 35.9008C9.33159 36.4087 8.90237 37.0419 8.74835 37.304C8.5939 37.5565 8.07523 38.4113 7.58622 39.189C7.09722 39.9667 6.53159 40.9559 6.33193 41.3808C6.12608 41.8154 5.79055 42.4637 5.58871 42.8413C5.37981 43.2098 5.0558 43.8197 4.86723 44.1968C4.67822 44.5644 4.40866 45.0585 4.27943 45.2816C4.14357 45.505 3.93108 45.9399 3.80576 46.248C3.68045 46.5562 3.45731 47.0484 3.32493 47.3474C3.18548 47.6372 3.01767 48.0324 2.953 48.2149C2.89453 48.3878 2.70541 48.8974 2.54554 49.3207C2.38609 49.7534 2.20796 50.3573 2.15559 50.6624C2.10364 50.977 2.02029 51.3308 1.97333 51.4653C1.92638 51.5998 1.82541 51.8597 1.74748 52.0428C1.66956 52.2259 1.55382 52.742 1.48144 53.19C1.4157 53.6378 1.30257 54.2106 1.23519 54.4785C1.16738 54.7369 1.08 55.1477 1.04447 55.3859C1.0023 55.6243 0.963085 56.071 0.957557 56.3837C0.945398 56.6967 0.857718 57.5335 0.763944 58.2381C0.590631 59.5235 0.590631 59.5235 0.693427 61.0342C0.788388 62.3748 0.843406 62.704 1.12892 63.9988C1.31179 64.7961 1.59392 65.8733 1.7571 66.3873C2.03585 67.2469 2.10162 67.3767 2.58961 68.0193C2.88594 68.3952 3.30642 68.8702 3.53524 69.0785C3.76363 69.2774 4.16117 69.687 4.41424 69.989C4.66024 70.2818 4.95929 70.5724 5.06843 70.6342C5.18376 70.6862 5.52802 70.8045 5.84445 70.8956C6.16088 70.9867 6.64743 71.1654 6.92582 71.2959C7.39378 71.5037 7.57412 71.5247 9.03679 71.5494C10.5662 71.5807 10.6719 71.5669 11.2864 71.3521C11.6459 71.2236 12.2962 71.0641 12.745 70.9982C13.3847 70.896 13.6597 70.8088 14.0276 70.5758C14.2987 70.4036 14.7422 70.2243 15.0711 70.1539C15.3934 70.0837 15.7396 69.9558 15.8484 69.8661C15.9634 69.7666 16.1814 69.5966 16.3416 69.4669C16.5021 69.3467 16.8072 69.192 17.023 69.1168C17.2392 69.051 17.6411 68.8356 17.9114 68.6445C18.1882 68.4531 18.6494 68.2257 18.9443 68.1378C19.2392 68.0498 19.5253 67.9149 19.5815 67.8368C19.6381 67.7682 19.7779 67.6298 19.8995 67.5301C20.0216 67.4398 20.2927 67.2676 20.5133 67.1544C20.734 67.0411 21.243 66.6981 21.6477 66.3973C22.0519 66.087 22.7777 65.5457 23.2531 65.1946C23.7281 64.8341 24.2801 64.4135 24.4725 64.2635C24.6649 64.1135 24.9355 63.9319 25.0717 63.86C25.2146 63.7878 25.4844 63.5873 25.6825 63.4181C25.8869 63.2392 26.1673 62.9814 26.3199 62.8331C26.4659 62.685 26.7352 62.475 26.9223 62.3536C27.1032 62.242 27.2924 62.1679 27.3468 62.194C27.3945 62.2205 27.4412 62.37 27.4482 62.5212C27.4552 62.6725 27.322 63.3881 27.1553 64.0957C26.989 64.8127 26.7749 65.6453 26.6828 65.9521C26.5906 66.259 26.474 66.7562 26.4283 67.061C26.3772 67.3946 26.3623 67.7929 26.3931 68.0283C26.4172 68.264 26.5712 68.7216 26.7632 69.1397C26.9406 69.5301 27.1812 69.9935 27.2955 70.1687C27.4099 70.3439 27.6908 70.6731 27.9275 70.9095C28.1714 71.1551 28.5283 71.4054 28.7586 71.5C28.9817 71.5855 29.5444 71.6853 30.0178 71.7225C30.7515 71.7868 30.95 71.7691 31.5066 71.5946C31.8541 71.495 32.3971 71.3116 32.711 71.2039C33.0245 71.0868 33.399 70.9955 33.5316 70.99C33.6708 70.9843 33.8251 71.0157 33.8803 71.0608C33.9426 71.115 33.9611 71.2279 33.9473 71.361C33.9273 71.5039 33.7839 71.7087 33.5481 71.9267C33.3442 72.1151 33.0912 72.3907 32.9784 72.5374C32.8722 72.6838 32.5001 73.1158 32.159 73.4992C31.8179 73.8826 31.2818 74.5013 30.9663 74.8647C30.6509 75.2281 30.1974 75.7676 29.959 76.071C29.72 76.365 29.386 76.7575 29.2086 76.9448C29.0379 77.1318 28.7114 77.5429 28.4875 77.8741C28.2636 78.2053 27.9441 78.6257 27.7663 78.8035C27.5955 78.9905 27.2248 79.4508 26.9434 79.8318C26.6682 80.203 26.0519 80.9576 25.5719 81.4982C25.0919 82.0388 24.48 82.7459 24.2163 83.0787C23.9522 83.4021 23.5111 83.9222 23.2329 84.2273C22.9546 84.5323 22.3808 85.1999 21.965 85.6906C21.5429 86.1909 20.8501 87.015 20.4218 87.5251C19.9936 88.0351 19.5162 88.6325 19.3605 88.8567C19.2043 89.0715 18.7955 89.5713 18.4478 89.955C18.1 90.3386 17.7169 90.8185 17.5996 91.0127C17.4823 91.2069 17.2005 91.5784 16.9727 91.8245C16.7449 92.0707 16.425 92.4816 16.2511 92.7444C16.0833 92.9976 15.7692 93.3893 15.5604 93.6157C15.3516 93.8421 15.0433 94.2147 14.8676 94.4398C14.6986 94.6645 14.4274 94.9788 14.269 95.1463C14.1107 95.3138 13.6536 95.9198 13.2479 96.4857C12.8425 97.0612 12.359 97.6682 12.1816 97.8555C11.9971 98.0335 11.1698 99.1093 10.3384 100.242C9.3198 101.638 8.77906 102.447 8.67276 102.735C8.58418 102.975 8.53093 103.262 8.54942 103.374C8.5679 103.487 8.62748 103.627 8.68933 103.672C8.77238 103.744 8.88423 103.72 9.09739 103.589C9.25924 103.497 9.58217 103.152 9.81357 102.839C10.0512 102.517 10.4033 102.086 10.5927 101.87C10.7825 101.663 11.1537 101.212 11.4103 100.87C11.6673 100.537 12.3093 99.7628 12.8265 99.1638C13.3498 98.5551 13.9475 97.8297 14.1533 97.5371C14.3657 97.2443 14.7232 96.7845 14.9364 96.5105C15.1563 96.2363 15.5805 95.7832 15.8796 95.4962C16.1786 95.2093 16.6192 94.6797 16.8551 94.3196C17.0976 93.9593 17.5745 93.3525 17.9222 92.9688C18.2699 92.5851 18.6531 92.1053 18.7704 91.9111C18.8876 91.7169 19.1067 91.4237 19.2584 91.2565C19.4039 91.099 19.7181 90.7072 19.949 90.3852C20.18 90.0632 20.6521 89.4945 21.0002 89.1202C21.3488 88.7555 21.8403 88.1765 22.0912 87.8536C22.3416 87.5213 22.707 87.0896 22.9105 86.8918C23.1074 86.6943 23.5873 86.1537 23.9643 85.6836C24.3483 85.2226 24.8841 84.5945 25.1623 84.2894C25.4406 83.9844 25.8228 83.4857 26.0083 83.1845C26.1937 82.8833 26.6211 82.3543 26.9506 82.0092C27.2802 81.6642 27.8655 80.9582 28.2403 80.4409C28.6221 79.9327 29.0867 79.3454 29.2769 79.1481C29.4667 78.9414 29.7945 78.5586 30.0011 78.2849C30.2078 78.0113 30.5542 77.5992 30.7696 77.3725C30.985 77.1458 31.3951 76.6744 31.6849 76.331C31.9743 75.9781 32.4892 75.3319 32.8348 74.901C33.1803 74.4701 33.7037 73.8613 33.989 73.5655C34.2805 73.2599 34.753 72.7006 35.0278 72.32C35.3088 71.9296 35.7671 71.352 36.0445 71.028C36.3219 70.7041 36.7059 70.2432 36.8939 69.9987C37.0816 69.7447 37.3399 69.4405 37.4602 69.3124C37.5801 69.1749 37.7376 68.9885 37.8062 68.891C37.8748 68.7935 38.2229 68.4192 38.5782 68.0542C38.9334 67.6892 39.3965 67.2155 39.6058 66.9985C39.8216 66.7813 40.2361 66.4043 40.5302 66.1554C40.8177 65.9068 41.1556 65.5993 41.2755 65.4618C41.3954 65.3243 41.6307 65.0967 41.7975 64.9668C41.9704 64.827 42.2615 64.512 42.4491 64.258C42.6367 64.0041 42.8942 63.681 43.0265 63.524C43.1526 63.3768 43.3725 63.1025 43.5163 62.9072C43.6605 62.7213 43.9073 62.4555 44.0745 62.3349C44.3695 62.1049 44.4288 62.093 46.3508 61.9945L48.3192 61.8941L48.7562 61.573C49.0131 61.3825 49.2992 61.2476 49.4517 61.2413C49.6374 61.2336 49.7258 61.2773 49.7849 61.4074C49.8229 61.51 49.8656 61.7165 49.873 61.8772C49.88 62.0284 49.7913 62.4108 49.6797 62.7279C49.5264 63.1508 49.4514 63.5421 49.3859 64.2834C49.3378 64.8251 49.3077 65.4702 49.3186 65.7065C49.3295 65.9427 49.3946 66.3472 49.4598 66.6096C49.5251 66.872 49.646 67.189 49.7321 67.3274C49.8182 67.4659 50.0267 67.6656 50.1981 67.7816C50.3761 67.8973 50.7495 68.0712 51.0332 68.1731C51.3099 68.2658 51.7187 68.3435 51.9442 68.3342C52.163 68.3252 52.4848 68.2456 52.6604 68.1625C52.8355 68.0701 53.4341 67.9412 53.9889 67.8708C54.5503 67.8003 55.0645 67.7127 55.1423 67.6716C55.2206 67.64 55.5107 67.4481 55.7875 67.2567C56.0644 67.0653 56.5309 66.8093 56.8249 66.7025C57.184 66.5645 57.5386 66.332 57.9089 66.0043C58.2149 65.7265 58.4772 65.5073 58.4971 65.5065C58.517 65.5057 58.7727 65.2868 59.0659 65.019C59.3587 64.7417 59.7781 64.3267 60.0059 64.0806C60.2337 63.8344 60.7181 63.3883 61.09 63.0983C61.4616 62.7989 62.2365 62.1703 62.8194 61.7011C63.6836 60.9931 63.988 60.6775 64.507 59.9743C64.8508 59.5055 65.4179 58.8382 65.7674 58.4923C66.1102 58.1468 66.6366 57.6042 66.9348 57.2983C67.2329 56.9925 67.6531 56.5963 67.8708 56.4169C68.0888 56.2469 68.3479 56.1036 68.4408 56.0998C68.5336 56.0959 68.6083 56.1307 68.61 56.1685C68.6117 56.2063 68.5302 56.4559 68.4297 56.7251C68.3221 56.9853 67.9552 57.6727 67.6029 58.2459C67.2511 58.8286 66.9621 59.3329 66.9638 59.3707C66.966 59.418 66.7607 59.72 66.504 60.062C66.2218 60.4241 65.9199 60.9384 65.7463 61.3527C65.5914 61.7379 65.2372 62.4153 64.9659 62.8716C64.6947 63.3278 64.4038 63.9364 64.3174 64.224C64.2248 64.5214 64.1631 64.9122 64.1722 65.1106C64.1814 65.3091 64.2338 65.5815 64.2933 65.7211C64.3529 65.8606 64.4752 66.0639 64.5662 66.1643C64.651 66.2744 64.7968 66.4104 64.8789 66.4638C64.9678 66.5169 65.2934 66.6644 65.6107 66.7744C65.9285 66.8938 66.2648 66.984 66.3576 66.9802C66.4504 66.9763 66.7622 66.8214 67.0523 66.6295C67.3429 66.447 67.6529 66.2543 67.7439 66.2126C67.835 66.171 68.1128 65.9985 68.3578 65.8369C68.6094 65.675 68.9375 65.4436 69.0919 65.3331C69.2529 65.2223 69.47 65.0334 69.5705 64.9061C69.6775 64.7786 70.0354 64.4703 70.3622 64.2106C70.6891 63.9508 71.1601 63.5053 71.4061 63.2205C71.6901 62.8963 71.9909 62.6471 72.2253 62.5427C72.4791 62.4281 72.6896 62.2395 72.902 61.9466C73.0706 61.7124 73.2719 61.4673 73.3488 61.4073C73.4254 61.3379 73.5492 61.2854 73.6221 61.2824C73.7083 61.2788 73.9194 61.5352 74.2338 62.0146C74.4916 62.4205 74.7964 62.834 74.9006 62.9338C75.0119 63.0428 75.2642 63.1839 75.46 63.2515C75.6562 63.3286 75.9752 63.4764 76.1599 63.5919C76.4745 63.7871 76.6014 63.8008 77.8957 63.7757C79.1435 63.7524 79.4273 63.7123 80.5702 63.4283C81.2727 63.2477 82.2034 62.9724 82.6336 62.7937C83.0643 62.6243 83.5692 62.4804 83.7482 62.4729C83.9339 62.4653 84.3734 62.3429 84.7324 62.205C85.0914 62.067 85.6348 61.893 85.9438 61.8234C86.2533 61.7633 86.7693 61.5715 87.0872 61.4068C87.4573 61.2211 87.8893 61.0801 88.2655 61.0267C88.5953 60.9751 89.048 60.8522 89.2687 60.739C89.4893 60.6257 89.8413 60.4785 90.0513 60.4225C90.2543 60.3573 90.7941 60.2497 91.2423 60.1744C91.829 60.0743 92.2021 59.9547 92.5904 59.7304C93.0503 59.4746 93.2276 59.4294 93.7912 59.4061C94.3548 59.3827 94.4729 59.3495 94.6109 59.1733C94.7056 59.0652 94.807 58.8149 94.8376 58.6147C94.89 58.3096 94.8711 58.1873 94.7414 57.8234C94.6421 57.5434 94.5066 57.3407 94.3555 57.2333C94.184 57.1174 93.9962 57.0778 93.5992 57.1132C93.3075 57.1252 92.807 57.2217 92.4794 57.3205C92.1584 57.419 91.5448 57.5106 91.1205 57.5282C90.6232 57.5488 90.2408 57.612 90.0329 57.7153C89.7795 57.8394 89.5019 57.8698 88.6846 57.8657C88.1197 57.8607 87.3404 57.8172 86.9537 57.7859C86.5665 57.7451 85.9981 57.6645 85.6834 57.6112C85.3683 57.5485 84.7239 57.4047 84.2404 57.2922C83.7631 57.1699 83.1099 56.9792 82.7988 56.8595C82.4877 56.7398 81.9949 56.5708 81.7055 56.4881C81.416 56.4054 80.9825 56.2245 80.7501 56.0827C80.511 55.9411 80.1306 55.758 79.8941 55.6731C79.6644 55.5879 79.3701 55.4012 79.2371 55.2552C79.0627 55.0731 78.9453 54.8318 78.8258 54.4011C78.7376 54.0734 78.5955 53.7289 78.5253 53.6466C78.448 53.5551 78.2447 53.4689 78.0715 53.4571C77.7846 53.4311 77.7134 53.4719 77.3715 53.8364C77.0171 54.2204 76.972 54.2506 76.6056 54.2279C76.2988 54.2027 76.0478 54.09 75.3148 53.6091C74.8218 53.2886 74.2902 52.9981 74.1426 52.9664C73.995 52.9346 73.8129 52.8759 73.7373 52.8222C73.6618 52.7685 73.5642 52.6684 73.5138 52.5853C73.4635 52.5021 73.4212 52.305 73.4142 52.1538C73.4068 51.9932 73.4437 51.7833 73.5052 51.6766C73.5597 51.5608 73.8481 51.189 74.1437 50.8264C74.4396 50.4733 74.8444 50.0305 75.0413 49.833C75.2381 49.6354 75.5713 49.224 75.7832 48.9217C75.9947 48.6099 76.5101 47.9731 76.9331 47.4917C77.356 47.0102 77.8555 46.4593 78.0328 46.272C78.2169 46.0845 78.4098 45.802 78.4559 45.6486C78.502 45.4951 78.5371 45.2475 78.5301 45.0963C78.5231 44.9451 78.4446 44.6832 78.3502 44.5072C78.2486 44.3221 78.0671 44.1307 77.8696 44.0253C77.6584 43.9109 77.4909 43.88 77.3273 43.9341C77.1699 43.9785 76.9482 44.2149 76.6363 44.6539C76.3867 45.0051 76.0231 45.4747 75.8337 45.6908C75.6448 45.9164 75.2877 46.3857 75.0514 46.7363C74.8085 47.0872 74.2174 47.8124 73.7374 48.353C73.2575 48.8937 72.7341 49.5024 72.5837 49.698C72.4337 49.903 72.2819 50.0703 72.2488 50.0716C72.2222 50.0727 72.0387 50.2697 71.844 50.5145C71.6493 50.7592 71.3959 51.0254 71.2667 51.1065C71.1442 51.1873 70.9152 51.2631 70.7561 51.2696C70.5571 51.2779 70.3813 51.2094 70.1599 51.0197C69.9872 50.8754 69.4592 50.5185 68.9807 50.2258C68.5088 49.9329 67.9597 49.5485 67.7525 49.3772C67.5519 49.2056 67.2351 48.963 67.0434 48.8384C66.8583 48.7135 66.5375 48.5279 66.3404 48.4319C66.1429 48.3265 65.8221 48.1409 65.6237 48.0166C65.4315 47.8825 65.0026 47.512 64.6815 47.175C64.3542 46.8477 63.8705 46.2996 63.5963 45.9701C63.3216 45.6311 62.9585 45.2484 62.7862 45.1135C62.6139 44.9786 62.3846 44.7609 62.2729 44.6424C62.1607 44.5145 61.8975 44.1372 61.6829 43.8052C61.4745 43.4635 61.2022 42.8877 61.0729 42.5332C60.9499 42.1691 60.7827 41.712 60.6935 41.5074C60.6114 41.312 60.5365 40.9837 60.5274 40.7852C60.5148 40.5111 60.56 40.3388 60.7326 40.0476C60.849 39.8345 61.0821 39.5597 61.2493 39.4392C61.4161 39.3092 61.6629 39.0433 61.8001 38.8483C61.9368 38.6438 62.3399 38.0211 62.6993 37.4571C63.0586 36.893 63.4427 36.2901 63.5543 36.115C63.6658 35.94 64.0193 35.3951 64.3428 34.9177C64.6592 34.4312 65.115 33.7969 65.3406 33.5035C65.5729 33.2098 66.0463 32.5274 66.3937 31.9923C66.7345 31.4574 67.1455 30.8628 67.2964 30.6767C67.4539 30.4902 67.6796 30.1968 67.7986 30.0404C67.9238 29.8743 68.1685 29.5611 68.3379 29.3458C68.514 29.1302 68.8555 28.7563 69.097 28.519C69.3452 28.2815 69.5863 28.0348 69.6363 27.9665C69.6867 27.9076 69.9167 27.7087 70.1476 27.5287C70.3789 27.3582 70.738 27.0782 70.9494 26.9085C71.1608 26.7387 71.4983 26.4218 71.6947 26.2148C71.8978 26.0076 72.3025 25.7068 72.5939 25.5432C72.8919 25.3794 73.4226 25.0733 73.779 24.8787C74.135 24.6746 74.7152 24.2908 75.0682 24.0205C75.4206 23.7408 75.8395 23.4583 76.0017 23.3759C76.164 23.2934 76.424 23.169 76.5868 23.096C76.7499 23.0324 77.0095 22.8986 77.1718 22.8161C77.3336 22.7242 77.6105 22.5329 77.7825 22.3742C77.9617 22.2248 78.3234 22.0015 78.5905 21.8863C78.8571 21.7617 79.3228 21.4867 79.6244 21.2565C79.926 21.0262 80.3776 20.7329 80.6234 20.5902C80.8764 20.4566 81.3221 20.1825 81.6255 19.9901C81.9293 19.8071 82.3958 19.551 82.6633 19.4453C82.9304 19.3301 83.5601 19.0105 84.0585 18.7247C84.5573 18.4484 85.2113 18.0805 85.5023 17.9075C85.7999 17.7342 86.2549 17.5165 86.5096 17.4208C86.7709 17.3247 87.1021 17.1595 87.2569 17.0584C87.4046 16.9482 87.6624 16.7765 87.823 16.6563C87.984 16.5455 88.3408 16.3602 88.6141 16.2353C88.8878 16.1198 89.207 15.9835 89.3114 15.9413C89.4219 15.8894 89.6563 15.785 89.8318 15.702C90.014 15.6187 90.3311 15.4352 90.5504 15.2935C90.7631 15.1522 91.1266 14.9667 91.3614 14.8717C91.59 14.7865 92.0096 14.665 92.2921 14.5965C92.6073 14.5172 93.0106 14.3301 93.3263 14.1182C93.6222 13.9071 94.071 13.6991 94.4057 13.6095C94.7205 13.5207 95.1503 13.3325 95.363 13.1912C95.5757 13.0498 96.0321 12.8605 96.3729 12.7611C96.7138 12.6618 97.1586 12.5108 97.3536 12.4176C97.5486 12.3243 97.9908 12.1166 98.3286 11.9511C98.6665 11.7856 99.1564 11.6044 99.4061 11.5467C99.6626 11.4888 100.102 11.3664 100.39 11.2693C100.678 11.1722 101.122 11.0117 101.369 10.8973C101.623 10.7827 102.389 10.5427 103.071 10.3535C103.76 10.164 104.541 9.94232 104.809 9.85546C105.077 9.76861 105.701 9.60077 106.187 9.47651C106.672 9.34279 107.336 9.19222 107.665 9.12179C107.987 9.05164 108.61 8.87436 109.042 8.72394C109.565 8.54133 110.21 8.41048 110.984 8.33111C111.677 8.24559 112.388 8.11199 112.761 7.98294C113.101 7.85527 113.752 7.71469 114.208 7.66741C114.664 7.61066 115.6 7.44883 116.284 7.29744C116.974 7.14576 117.95 6.97284 118.459 6.92335C118.968 6.87387 119.502 6.78548 119.645 6.72274C119.789 6.66 120.441 6.54778 121.095 6.46391C121.749 6.38004 122.45 6.30369 122.648 6.29546C122.847 6.28723 123.433 6.31033 123.946 6.3459C124.459 6.38147 125.122 6.48661 125.418 6.57848C125.715 6.67037 126.08 6.80676 126.23 6.88578C126.38 6.96479 126.598 7.08832 126.721 7.15899C126.837 7.22992 126.966 7.28141 127.005 7.27977C127.045 7.27812 127.236 7.37439 127.44 7.48901C127.638 7.60391 127.99 7.88288 128.219 8.11009C128.443 8.33757 128.73 8.65709 128.857 8.83171C128.984 8.99688 129.145 9.30271 129.221 9.50788C129.334 9.81564 129.361 10.108 129.398 11.1954C129.433 12.1124 129.416 12.7381 129.349 13.2995C129.296 13.7372 129.201 14.2808 129.145 14.5009C129.089 14.7305 128.949 15.1529 128.836 15.4417C128.717 15.7307 128.537 16.3062 128.423 16.7181C128.309 17.1299 128.072 17.7363 127.887 18.0658C127.71 18.3951 127.378 19.119 127.151 19.6776C126.931 20.2359 126.65 20.9197 126.531 21.2087C126.411 21.4978 125.981 22.2636 125.573 22.9149C124.998 23.8382 124.765 24.1319 124.539 24.2549C124.376 24.3373 124.084 24.4915 123.89 24.5942C123.695 24.6969 123.315 24.9588 123.046 25.1688C122.777 25.3788 122.519 25.5504 122.472 25.5524C122.426 25.5543 121.976 25.8854 121.483 26.2845C120.984 26.6934 120.454 27.1604 120.295 27.3184C120.137 27.4859 119.835 27.7162 119.621 27.8387C119.408 27.9611 119.022 28.2422 118.767 28.4611C118.511 28.68 118.096 29.057 117.855 29.3037C117.614 29.5503 117.039 30.0476 116.578 30.4076C116.116 30.7675 115.561 31.2639 115.34 31.5098C115.119 31.7651 114.706 32.1893 114.414 32.4666C114.12 32.7344 113.759 33.1091 113.601 33.2956C113.45 33.4723 113.144 33.75 112.932 33.9009C112.713 34.052 112.445 34.2997 112.326 34.4562C112.207 34.6126 111.879 34.9954 111.601 35.3005C111.317 35.6152 110.874 36.0975 110.614 36.3734C110.355 36.6587 110.059 37.0024 109.952 37.1488C109.853 37.295 109.625 37.5317 109.453 37.6903C109.273 37.8397 109.021 38.1342 108.884 38.3293C108.74 38.5246 108.431 38.8877 108.184 39.1347C107.943 39.3814 107.564 39.8231 107.352 40.1065C107.146 40.3991 106.733 40.9653 106.447 41.3749C106.167 41.7841 105.802 42.2442 105.644 42.4118C105.486 42.5793 105.28 42.8624 105.174 43.0277C105.076 43.2022 104.876 43.4756 104.737 43.6329C104.605 43.7898 104.078 44.4744 103.578 45.1579C103.078 45.832 102.238 47.0692 101.712 47.9053C101.179 48.7322 100.586 49.7131 100.384 50.0907C100.182 50.4589 99.85 51.0407 99.6393 51.3714C99.4105 51.7407 99.1148 52.3873 98.8911 53.012C98.6851 53.5886 98.4061 54.3103 98.2746 54.6282C98.059 55.139 98.0319 55.2727 98.0537 55.7452C98.072 56.1421 98.1147 56.3487 98.2299 56.5427C98.3094 56.6815 98.4852 56.892 98.6098 57.0005C98.7763 57.1545 98.938 57.2046 99.1768 57.1948C99.4619 57.183 99.6432 57.0808 100.195 56.6508C100.56 56.3705 100.952 56.0703 101.055 56.0092C101.165 55.9384 101.445 55.6806 101.68 55.4436C101.922 55.2064 102.196 54.9583 102.287 54.9072C102.384 54.8464 102.63 54.7226 102.845 54.619C103.053 54.5157 103.304 54.3443 103.391 54.2271C103.479 54.1098 103.901 53.7421 104.324 53.4121C104.747 53.0821 105.183 52.7421 105.285 52.6527C105.394 52.5629 105.651 52.3724 105.857 52.2313C106.063 52.0902 106.401 51.7733 106.596 51.5379C106.798 51.3023 107.111 50.9012 107.292 50.6475C107.48 50.403 107.843 50.0471 108.1 49.8566C108.364 49.6752 108.759 49.318 108.987 49.0718C109.215 48.8257 109.597 48.469 109.834 48.2793C110.078 48.0893 110.432 47.7054 110.625 47.4228C110.824 47.1399 111.031 46.8663 111.089 46.8165C111.146 46.7668 111.442 46.4137 111.75 46.0317C112.052 45.6594 112.48 45.1398 112.701 44.894C112.915 44.6484 113.263 44.2553 113.464 44.0197C113.672 43.7743 113.873 43.5198 113.916 43.4518C113.96 43.3837 114.331 42.9422 114.735 42.4805C115.139 42.0093 115.622 41.4022 115.795 41.1205C115.975 40.8385 116.382 40.2914 116.702 39.8994C117.024 39.5168 117.429 38.9414 117.594 38.6316C117.766 38.3309 118.003 37.9803 118.124 37.8711C118.245 37.7619 118.668 37.129 119.062 36.4688C119.457 35.8086 119.973 35.0297 120.212 34.7358C120.45 34.4418 120.91 33.7411 121.23 33.1976C121.55 32.6446 122.125 31.7024 122.503 31.1092C122.88 30.5065 123.551 29.5035 124 28.86C124.442 28.2262 124.926 27.4771 125.072 27.187C125.212 26.9066 125.49 26.4406 125.689 26.1578C125.882 25.8752 126.169 25.4751 126.319 25.2701C126.469 25.065 126.858 24.708 127.172 24.4678C127.494 24.2367 127.868 23.994 128.011 23.9312C128.155 23.8685 128.565 23.6811 128.922 23.5053C129.28 23.339 129.702 23.1416 129.865 23.0781C130.029 23.0145 130.578 22.8213 131.094 22.639C131.611 22.4661 132.135 22.3118 132.261 22.3066C132.387 22.3014 132.676 22.3747 132.907 22.4788C133.131 22.5737 133.5 22.814 133.715 23.004C133.937 23.2031 134.188 23.4673 134.268 23.606C134.354 23.7445 134.459 24.0147 134.508 24.2021C134.581 24.4831 134.588 24.7952 134.543 25.6872C134.512 26.3039 134.455 26.9596 134.424 27.1408C134.392 27.322 134.238 27.8586 134.074 28.3389C133.916 28.8093 133.709 29.3576 133.618 29.5413C133.527 29.7344 133.379 30.1193 133.286 30.4072C133.199 30.6949 132.991 31.2337 132.816 31.6102C132.647 31.977 132.443 32.4589 132.353 32.6709C132.27 32.8827 131.983 33.4248 131.725 33.8805C131.46 34.3365 131.173 34.8692 131.076 35.072C130.985 35.2746 130.669 35.7706 130.376 36.1804C130.075 36.581 129.84 36.9411 129.842 36.9884C129.844 37.0262 129.724 37.3058 129.571 37.5961C129.425 37.8862 129.201 38.2269 129.08 38.3361C128.966 38.4544 128.804 38.6884 128.732 38.8618C128.66 39.0257 128.424 39.3858 128.218 39.6595C128.004 39.924 127.68 40.4013 127.496 40.7214C127.304 41.0323 127.023 41.4227 126.865 41.5902C126.707 41.7578 126.411 42.1298 126.206 42.4318C126.001 42.7338 125.38 43.5359 124.827 44.2216C124.274 44.9073 123.564 45.7889 123.243 46.1809C122.929 46.5727 122.275 47.3761 121.798 47.9735C121.32 48.5614 120.825 49.2068 120.694 49.4016C120.57 49.5961 120.267 49.94 120.032 50.1581C119.796 50.3856 119.473 50.7304 119.31 50.936C119.147 51.1416 118.839 51.5236 118.626 51.7975C118.412 52.062 118.019 52.6085 117.744 52.9892C117.476 53.379 117.15 53.7902 117.016 53.9094C116.888 54.0283 116.707 54.2725 116.616 54.4656C116.494 54.7074 116.451 54.9175 116.463 55.1727C116.472 55.3711 116.532 55.6622 116.591 55.8017C116.651 55.9507 116.798 56.1151 116.921 56.1857C117.044 56.2564 117.285 56.3032 117.451 56.2869C117.65 56.2787 117.857 56.1754 118.056 56.0062C118.222 55.8668 118.5 55.5617 118.669 55.3275C118.844 55.093 119.219 54.5757 119.499 54.1664C119.772 53.7574 120.227 53.0947 120.501 52.6952C120.774 52.2862 121.157 51.8064 121.354 51.6183C121.551 51.4208 121.848 51.0771 122.016 50.8429C122.185 50.6087 122.435 50.2764 122.574 50.1191C122.713 49.9524 122.963 49.6201 123.138 49.3762C123.306 49.1325 123.551 48.8288 123.671 48.7008C123.792 48.5727 124.049 48.2401 124.236 47.9673C124.422 47.685 124.836 47.166 125.145 46.8029C125.46 46.43 125.823 45.951 125.966 45.7273C126.102 45.5134 126.351 45.1433 126.527 44.9182C126.696 44.6935 127.119 44.212 127.467 43.8472C127.816 43.4825 128.426 42.7471 128.82 42.2005C129.213 41.6635 129.705 40.9519 129.909 40.6215C130.114 40.3006 130.452 39.8511 130.667 39.6244C130.877 39.4074 131.203 38.9962 131.396 38.7042C131.601 38.3927 131.936 38.0379 132.244 37.7979C132.52 37.5877 132.852 37.2899 132.971 37.1429C133.091 36.996 133.376 36.7095 133.606 36.5106C133.836 36.3118 134.272 35.8203 134.586 35.4191C134.893 35.0182 135.336 34.5453 135.568 34.3748C135.792 34.2045 136.085 33.9273 136.203 33.752C136.328 33.5764 136.682 33.1924 136.994 32.886C137.312 32.5888 137.753 32.2107 137.985 32.0496C138.21 31.8888 138.553 31.5527 138.734 31.299C138.922 31.045 139.283 30.6608 139.532 30.4517C139.782 30.2425 140.162 29.9806 140.369 29.8773C140.584 29.7737 140.898 29.5335 141.075 29.3368C141.253 29.1495 141.655 28.792 141.975 28.5326C142.289 28.2829 142.749 27.8757 142.991 27.6479C143.232 27.4106 143.694 27.0601 144.018 26.8668C144.341 26.6735 144.814 26.4078 145.06 26.2745C145.313 26.1504 145.733 25.8868 145.996 25.6866C146.26 25.4957 146.718 25.2117 147.01 25.0575C147.302 24.9034 147.707 24.6215 147.911 24.4332C148.115 24.2354 148.454 23.9562 148.666 23.796C148.878 23.6357 149.144 23.5016 149.257 23.4969C149.363 23.4925 149.491 23.5346 149.54 23.5988C149.59 23.663 149.632 23.8507 149.64 24.0208C149.648 24.2003 149.62 24.4572 149.573 24.6011C149.527 24.7451 149.38 25.0163 149.249 25.211C149.119 25.4058 148.911 25.6606 148.791 25.7887C148.671 25.9167 148.296 26.4435 147.967 26.9495C147.639 27.4649 147.038 28.3988 146.635 29.0215C146.231 29.6442 145.715 30.3946 145.489 30.6786C145.263 30.972 144.392 32.2673 143.562 33.561C142.731 34.8453 141.935 36.0334 141.796 36.1906C141.657 36.3479 141.396 36.7374 141.225 37.057C141.047 37.3768 140.656 37.9706 140.355 38.3618C140.048 38.7627 139.555 39.4553 139.251 39.913C138.946 40.3706 138.362 41.2469 137.958 41.8602C137.555 42.4734 137.151 43.0866 137.065 43.2228C136.971 43.3592 136.408 44.2536 135.808 45.2158C135.208 46.1875 134.567 47.2651 134.384 47.6324C134.202 47.9903 134.022 48.4238 133.983 48.5864C133.951 48.7582 133.923 49.015 133.931 49.1757C133.931 49.3271 133.997 49.6085 134.071 49.7758C134.147 49.981 134.316 50.1823 134.501 50.3072C134.686 50.4321 134.922 50.5076 135.108 50.4999C135.274 50.493 135.667 50.3726 135.979 50.2366C136.292 50.1005 136.661 49.8864 136.794 49.7578C136.934 49.6289 137.259 49.3219 137.521 49.0839C137.775 48.8461 138.15 48.4708 138.359 48.2538C138.562 48.0371 139.01 47.6682 139.352 47.4458C139.693 47.2139 140.194 46.8428 140.462 46.6045C140.731 46.3756 141.132 45.9992 141.354 45.7627C141.575 45.5263 141.996 45.1396 142.297 44.9094C142.599 44.6697 143.16 44.1635 143.54 43.769C143.927 43.3743 144.411 42.8998 144.621 42.7206C144.832 42.5415 145.247 42.1645 145.547 41.8964C145.847 41.6284 146.408 41.1128 146.79 40.7561C147.178 40.3897 147.66 39.8963 147.868 39.651C148.076 39.3962 148.373 39.0809 148.533 38.9417C148.693 38.8026 148.885 38.6526 148.97 38.6112C149.054 38.5698 149.317 38.3601 149.546 38.1518C149.782 37.9337 150.275 37.5345 150.641 37.2637C151.007 36.9835 151.511 36.5176 151.757 36.2328C152.002 35.9386 152.479 35.4833 152.812 35.2139C153.145 34.9444 153.681 34.4583 153.992 34.133C154.309 33.8074 154.709 33.4121 154.881 33.2535C155.06 33.104 155.245 32.926 155.295 32.8576C155.345 32.7893 155.766 32.412 156.219 32.0145C156.68 31.6262 157.081 31.2498 157.111 31.1917C157.148 31.1239 157.242 30.9875 157.33 30.8986C157.413 30.81 157.549 30.7286 157.635 30.725C157.714 30.7217 157.803 30.7654 157.825 30.8213C157.854 30.8675 157.721 31.157 157.529 31.4585C157.336 31.7505 157.029 32.284 156.853 32.6416C156.669 32.9901 156.306 33.6111 156.032 34.0107C155.758 34.4102 155.347 34.9954 155.115 35.3079C154.891 35.6297 154.613 36.0862 154.511 36.3271C154.41 36.5775 154.042 37.2366 153.709 37.7996C153.369 38.3628 152.898 39.2345 152.669 39.7363C152.433 40.2385 152.196 40.7217 152.14 40.7998C152.083 40.8779 151.936 41.1491 151.809 41.4005C151.687 41.6423 151.488 42.2281 151.377 42.6967C151.221 43.3564 151.182 43.6705 151.198 44.1528C151.221 44.6442 151.262 44.8224 151.393 45.0632C151.48 45.2205 151.723 45.4661 151.928 45.5902C152.291 45.8213 152.325 45.8294 153.311 45.7507C154.119 45.6889 154.402 45.6298 154.712 45.456C154.927 45.343 155.348 45.1267 155.653 44.972C155.959 44.8268 156.352 44.5644 156.524 44.4057C156.703 44.2469 157.145 43.8877 157.517 43.6072C157.883 43.3174 158.365 42.9755 158.578 42.8342C158.79 42.6928 159.298 42.312 159.701 41.9829C160.105 41.6632 160.623 41.2345 160.847 41.0454C161.148 40.7962 161.33 40.7035 161.496 40.7155C161.703 40.7354 161.738 40.7718 161.768 40.9978C161.799 41.2238 161.726 41.3877 161.286 42.0688C161.001 42.5067 160.702 43.0871 160.614 43.3464C160.48 43.7496 160.458 43.9967 160.457 44.8395C160.46 45.7578 160.471 45.871 160.592 46.0459C160.664 46.1565 160.851 46.3192 161.007 46.398C161.157 46.4864 161.455 46.5972 161.67 46.6546C161.959 46.7278 162.198 46.718 162.658 46.6137C162.994 46.543 163.466 46.4098 163.714 46.3238C163.963 46.2378 164.376 46.1165 164.632 46.0586C164.902 46.0001 165.286 45.8232 165.53 45.6427C165.781 45.4713 166.178 45.2845 166.473 45.2154C166.756 45.1469 167.135 45.0176 167.311 44.9346C167.493 44.8418 167.667 44.7399 167.699 44.7007C167.737 44.6613 168.041 44.4877 168.378 44.3128C168.716 44.1473 169.249 43.8885 169.554 43.7339C169.866 43.579 170.491 43.1649 170.94 42.8149C171.665 42.2452 171.814 42.1633 172.138 42.1498C172.443 42.1372 172.558 42.1798 172.794 42.3973C172.947 42.5424 173.095 42.7162 173.123 42.7624C173.146 42.8183 173.291 42.9448 173.442 43.0522C173.593 43.1501 173.906 43.3076 174.136 43.4022C174.373 43.4966 174.902 43.5977 175.355 43.6263C175.795 43.6555 176.277 43.7208 176.425 43.7809C176.581 43.8313 176.854 43.8484 177.058 43.8021C177.255 43.7655 177.749 43.6598 178.156 43.5672C178.557 43.4749 179.003 43.3428 179.146 43.2801C179.29 43.2268 179.927 43.0678 180.565 42.9373C181.197 42.807 181.86 42.628 182.028 42.5358C182.197 42.4437 182.462 42.2812 182.616 42.1801C182.764 42.0698 183.089 41.9049 183.33 41.8097C183.572 41.7239 184.008 41.5354 184.294 41.4005C184.587 41.2653 184.894 41.1484 184.967 41.1454C185.047 41.1421 185.184 41.2312 185.275 41.3504C185.374 41.4789 185.497 41.8242 185.589 42.2559C185.674 42.6406 185.801 43.1088 185.876 43.2856C185.944 43.4721 186.145 43.7857 186.314 43.9965C186.489 44.1976 186.745 44.4142 186.895 44.4838C187.037 44.5442 187.351 44.588 187.59 44.5781C187.828 44.5588 188.391 44.5166 188.847 44.4693C189.303 44.422 189.969 44.2998 190.33 44.2091C190.691 44.1089 191.328 43.95 191.741 43.8476C192.155 43.7453 192.681 43.6194 192.904 43.5533C193.134 43.4965 193.569 43.2891 193.88 43.1058C194.197 42.9222 194.612 42.7062 194.808 42.6318C195.004 42.5669 195.298 42.4506 195.461 42.387C195.624 42.3329 196.03 42.051 196.363 41.7816C196.696 41.5121 197.015 41.2338 197.065 41.1654C197.115 41.0971 197.39 40.8585 197.672 40.629C197.954 40.4091 198.398 40.1066 198.664 39.9536C198.93 39.81 199.322 39.5381 199.539 39.3492C199.789 39.1401 200.022 39.0073 200.181 39.0007C200.314 38.9953 200.692 39.1216 201.018 39.288C201.344 39.445 201.764 39.617 201.946 39.6757C202.134 39.7247 202.619 39.8562 203.022 39.9626C203.432 40.0687 204.016 40.196 204.33 40.2398C204.645 40.2836 205.293 40.3704 205.767 40.4265C206.248 40.4824 207.14 40.5118 207.75 40.4865C208.592 40.4517 208.985 40.4733 209.409 40.5977C209.719 40.6796 210.327 40.7586 210.759 40.7786C211.192 40.7891 211.866 40.8653 212.255 40.9345C212.871 41.0415 213.07 41.0333 213.755 40.9102C214.466 40.7766 214.606 40.7709 215.057 40.9037C215.366 40.9856 215.887 41.0398 216.391 41.0284C216.849 41.0189 217.674 41.0416 218.22 41.0758C218.773 41.1097 219.496 41.2218 219.826 41.3123C220.338 41.471 220.524 41.4822 221.025 41.3952C221.355 41.3342 222.023 41.2876 222.515 41.2862C223.006 41.2754 223.932 41.3317 224.567 41.4096C225.201 41.478 225.881 41.5351 226.08 41.5269C226.273 41.5189 226.64 41.5605 226.895 41.6257C227.144 41.6911 227.819 41.7674 228.385 41.8102C228.951 41.8436 229.825 41.921 230.319 41.9763C230.814 42.0411 231.642 42.1299 232.156 42.1844C232.67 42.2483 233.616 42.3038 234.255 42.3247C235.273 42.3489 235.487 42.3779 235.962 42.595L236.504 42.8376L238.872 42.7586C241.068 42.6866 241.267 42.6878 241.667 42.8607C241.972 42.9901 242.28 43.0341 242.758 43.0238C243.122 43.0087 243.587 43.0084 243.786 43.0002C243.985 43.0014 244.434 42.926 244.775 42.8362C245.116 42.7463 245.591 42.6698 245.83 42.66C246.069 42.6595 246.475 42.6806 246.729 42.708C247.156 42.7471 247.215 42.7352 247.418 42.5185C247.582 42.3412 247.636 42.2159 247.627 42.008C247.617 41.8001 247.559 41.6983 247.38 41.5543C247.16 41.3835 247.033 41.3792 245.217 41.4733C244.071 41.5303 243.127 41.5314 242.886 41.4846C242.664 41.437 242.215 41.3514 241.88 41.2801C241.552 41.2179 240.679 41.1594 239.947 41.1423C239.216 41.1347 238.29 41.0878 237.883 41.0478C237.483 41.0076 237.041 40.9406 236.913 40.8891C236.785 40.8471 236.248 40.7462 235.719 40.6545C235.184 40.5725 234.418 40.519 233.987 40.5368C233.562 40.5544 232.863 40.517 232.442 40.4587C232.02 40.391 231.358 40.2858 230.97 40.2261C230.581 40.157 229.861 40.0921 229.368 40.0652C228.875 40.0477 228.048 39.9589 227.532 39.8666C227.016 39.7838 226.087 39.6518 225.458 39.5642C224.837 39.4858 223.71 39.3998 222.959 39.3836C222.207 39.3674 221.264 39.3591 220.853 39.3761C220.448 39.3928 219.875 39.3503 219.586 39.2865C219.297 39.2132 218.628 39.1084 218.094 39.0547C217.56 38.9916 216.421 38.944 215.564 38.9322C214.707 38.9298 213.954 38.8946 213.9 38.8685C213.846 38.8423 213.154 38.8236 212.371 38.8371C211.169 38.849 210.875 38.8232 210.503 38.6777C210.219 38.5569 209.804 38.4889 209.332 38.48C208.926 38.4778 208.433 38.432 208.238 38.3832C208.037 38.3442 207.517 38.3184 207.073 38.3368C206.635 38.3549 205.99 38.3342 205.65 38.301C205.309 38.2583 204.685 38.1231 204.267 37.9889C203.849 37.8548 203.311 37.7161 203.077 37.6973C202.844 37.6691 202.501 37.598 202.319 37.5299C202.136 37.4617 201.583 37.1342 201.083 36.7951C200.589 36.4558 200.077 36.155 199.949 36.1224C199.808 36.0904 199.637 36.1259 199.489 36.2267C199.36 36.3078 199.178 36.5426 199.081 36.7454C198.984 36.9483 198.831 37.2387 198.739 37.4034C198.653 37.5585 198.407 37.8433 198.203 38.0316C197.999 38.2105 197.599 38.6058 197.313 38.9017C197.028 39.1975 196.567 39.567 196.288 39.73C196.01 39.8835 195.596 40.1279 195.363 40.2701C195.131 40.4123 194.754 40.5983 194.519 40.6933C194.285 40.7976 193.953 40.9439 193.771 41.0272C193.595 41.1102 193.282 41.2463 193.087 41.3301C192.891 41.4045 192.329 41.5982 191.844 41.7508C191.36 41.9034 190.711 42.0913 190.408 42.1606C189.975 42.2732 189.617 42.288 188.658 42.2331C187.992 42.1943 187.397 42.1243 187.322 42.08C187.253 42.0261 187.132 41.8512 187.058 41.6933C186.978 41.5262 186.907 41.2924 186.901 41.1601C186.895 41.0278 186.944 40.789 187.002 40.6256C187.061 40.4622 187.217 40.2285 187.337 40.1099C187.465 39.991 187.761 39.7894 188.007 39.6561C188.247 39.5231 188.635 39.2798 188.866 39.1093C189.097 38.9387 189.663 38.5366 190.121 38.2241C190.584 37.9114 191.159 37.5467 191.405 37.4135C191.645 37.2804 192.044 36.9988 192.28 36.7807C192.516 36.5721 192.902 36.3005 193.135 36.1772C193.408 36.0334 193.708 35.7748 193.953 35.4616C194.166 35.1971 194.522 34.8416 194.734 34.6813C194.952 34.5207 195.34 34.1354 195.598 33.8218C195.856 33.5175 196.12 33.1941 196.176 33.1066C196.232 33.0285 196.439 32.7643 196.641 32.5193C196.842 32.2742 197.148 31.8544 197.322 31.5821C197.557 31.222 197.659 30.9811 197.698 30.6576C197.733 30.4099 197.752 30.1061 197.746 29.9738C197.74 29.8415 197.681 29.5694 197.611 29.3639C197.542 29.1585 197.39 28.8902 197.272 28.772C197.147 28.6541 196.817 28.4215 196.538 28.2627C196.135 28.0332 195.913 27.9666 195.493 27.9461C195.134 27.942 194.712 28.0068 194.208 28.1603C193.598 28.3465 193.326 28.4808 192.78 28.9011C192.408 29.1816 191.908 29.5716 191.657 29.7619C191.414 29.9613 191.197 30.1502 191.179 30.1888C191.161 30.2275 190.9 30.4844 190.601 30.7619C190.269 31.0692 189.791 31.6476 189.368 32.2711C188.988 32.8265 188.445 33.5781 188.17 33.9493C187.888 34.3113 187.559 34.8173 187.43 35.0499C187.308 35.2916 187.032 35.786 186.816 36.1547C186.57 36.5815 186.349 37.1114 186.194 37.6386C186.062 38.0891 185.878 38.5701 185.778 38.7068C185.678 38.8341 185.531 38.9633 185.453 38.9949C185.374 39.0171 185.087 39.1331 184.82 39.2483C184.552 39.3541 184.096 39.5529 183.81 39.6783C183.523 39.7944 182.952 40.0831 182.543 40.2989C182.134 40.5146 181.633 40.7437 181.437 40.8086C181.241 40.8736 180.556 41.0061 179.923 41.1175C179.291 41.2289 178.507 41.3749 178.178 41.4359C177.855 41.5061 177.421 41.5903 177.216 41.6272C176.979 41.6654 176.713 41.648 176.469 41.554C176.253 41.4777 175.852 41.428 175.501 41.4425C174.97 41.4645 174.876 41.44 174.715 41.2573C174.554 41.084 174.538 41.0184 174.587 40.7986C174.614 40.6555 174.794 40.3735 174.976 40.1576C175.16 39.9512 175.543 39.6134 175.826 39.4217C176.11 39.2301 176.558 38.8612 176.818 38.6043C177.079 38.3567 177.322 38.1478 177.362 38.1462C177.402 38.1446 177.623 37.9081 177.849 37.6242C178.082 37.3494 178.532 36.8763 178.864 36.5785C179.189 36.281 179.687 35.8343 179.968 35.586C180.248 35.3282 180.719 34.8732 181.016 34.5578C181.315 34.252 181.726 33.7994 181.934 33.5635C182.142 33.3182 182.503 32.9435 182.732 32.7257C182.961 32.5079 183.275 32.0972 183.421 31.8166C183.574 31.5356 183.763 31.1491 183.847 30.9657C183.96 30.6864 183.986 30.515 183.962 29.9952C183.937 29.4565 183.905 29.3347 183.756 29.1231C183.656 28.9852 183.489 28.8122 183.379 28.741C183.269 28.6604 183.034 28.6038 182.868 28.6107C182.636 28.6108 182.428 28.7141 182.017 29.0246C181.722 29.2546 181.239 29.5776 180.948 29.7506C180.664 29.9328 180.318 30.2123 180.179 30.3695C180.047 30.5359 179.775 30.8218 179.577 31.0004C179.379 31.179 178.981 31.6121 178.691 31.965C178.402 32.3084 177.929 32.8582 177.631 33.183C177.308 33.5277 176.547 34.6008 175.729 35.8656C174.631 37.5586 174.225 38.1151 173.635 38.7265C173.236 39.1407 172.745 39.5966 172.552 39.7371C172.359 39.8777 171.958 40.1121 171.667 40.2756C171.375 40.4297 170.982 40.7016 170.797 40.8608C170.612 41.0294 170.155 41.3419 169.78 41.5657C169.404 41.7801 168.858 42.0394 168.57 42.1365C168.276 42.2339 167.685 42.5235 167.251 42.7687C166.824 43.0231 166.285 43.2821 166.062 43.3482C165.832 43.405 165.402 43.5933 165.105 43.7666C164.742 43.9804 164.285 44.1413 163.732 44.2589C163.094 44.3989 162.849 44.4185 162.654 44.3509C162.471 44.2733 162.38 44.1823 162.346 44.0228C162.32 43.8913 162.31 43.6739 162.323 43.5219C162.343 43.379 162.544 42.9825 162.78 42.6318C163.01 42.2815 163.244 41.8741 163.303 41.7202C163.362 41.5662 163.527 41.2469 163.662 41.0141C163.798 40.7812 164.123 40.3511 164.396 40.0653C164.661 39.7702 164.92 39.4754 164.97 39.3976C165.019 39.3198 165.228 39.084 165.437 38.867C165.646 38.65 165.932 38.3542 166.071 38.2158C166.211 38.0775 166.44 37.8597 166.581 37.7402C166.721 37.6113 167.153 37.1863 167.534 36.7918C167.921 36.4065 168.404 35.9226 168.614 35.7245C168.824 35.5264 169.227 35.1973 169.51 34.9773C169.792 34.7668 170.123 34.4501 170.242 34.2842C170.36 34.1089 170.646 33.8319 170.877 33.6519C171.108 33.4814 171.451 33.1358 171.639 32.8913C171.827 32.6468 172.104 32.3228 172.25 32.1748C172.448 31.9867 172.533 31.8128 172.58 31.5362C172.627 31.2597 172.619 31.0896 172.547 30.8369C172.493 30.6592 172.37 30.4371 172.273 30.3559C172.141 30.2382 172.001 30.2156 171.737 30.255C171.447 30.3048 171.311 30.3957 171.021 30.7202C170.825 30.946 170.443 31.3027 170.174 31.5222C169.905 31.7321 169.574 32.0394 169.435 32.1966C169.295 32.3444 168.924 32.6533 168.608 32.8652C168.293 33.0866 167.872 33.4544 167.676 33.6802C167.474 33.9064 167.22 34.1536 167.104 34.2342C166.987 34.3053 166.692 34.5258 166.442 34.7255C166.199 34.925 165.821 35.2247 165.609 35.3944C165.398 35.5641 164.602 36.1746 163.838 36.7554C163.081 37.3359 162.432 37.8173 162.399 37.8186C162.366 37.82 162.038 38.0514 161.665 38.3225C161.293 38.603 160.799 38.9832 160.568 39.1727C160.337 39.3527 159.735 39.8321 159.221 40.2226C158.708 40.6226 158.122 41.0256 157.908 41.1386C157.701 41.2419 157.499 41.3355 157.472 41.3366C157.439 41.3379 157.246 41.469 157.04 41.6196C156.841 41.7698 156.386 42.1295 156.034 42.4092C155.682 42.6984 155.309 42.9789 155.199 43.0403C155.096 43.1108 154.769 43.2285 154.481 43.3162C154.193 43.4039 153.831 43.4757 153.678 43.482C153.479 43.4902 153.351 43.4387 153.252 43.3103C153.174 43.2093 153.108 43.07 153.105 43.0039C153.102 42.9472 153.151 42.7085 153.213 42.4786C153.276 42.2488 153.454 41.7964 153.612 41.4679C153.763 41.1397 153.975 40.6954 154.078 40.4828C154.181 40.2703 154.579 39.5342 154.966 38.8364C155.352 38.1482 156.073 36.9158 156.568 36.1189C157.062 35.3126 157.678 34.2645 157.935 33.7899C158.185 33.3061 158.562 32.694 158.763 32.43C158.963 32.1566 159.349 31.5915 159.628 31.1633C159.907 30.7351 160.272 30.1424 160.444 29.8513C160.61 29.5603 161.045 28.9079 161.401 28.4103C161.764 27.9124 162.159 27.4131 162.28 27.304C162.401 27.1853 162.603 26.9497 162.721 26.7839C162.847 26.6177 163.041 26.373 163.161 26.2354C163.281 26.0979 163.469 25.8629 163.582 25.7067C163.701 25.5503 163.835 25.2985 163.882 25.1546C163.922 25.0109 163.956 24.7444 163.948 24.5743C163.94 24.4041 163.868 24.1231 163.787 23.956C163.706 23.7889 163.524 23.5881 163.395 23.5177C163.238 23.4296 163.071 23.4081 162.94 23.4608C162.829 23.4938 162.656 23.6241 162.548 23.7422C162.447 23.8505 162.202 24.1731 162.009 24.4462C161.816 24.7193 161.462 25.1127 161.219 25.3216C160.976 25.5305 160.607 25.8772 160.404 26.0844C160.201 26.3011 159.94 26.5392 159.831 26.6289C159.722 26.7186 159.62 26.8175 159.602 26.8562C159.584 26.8853 159.445 27.052 159.287 27.2196C159.129 27.3871 158.93 27.5562 158.846 27.5976C158.755 27.6393 158.358 27.9587 157.955 28.3067C157.553 28.6643 157.083 29.1382 156.901 29.373C156.726 29.6075 156.339 30.0022 156.038 30.2419C155.737 30.4816 155.316 30.8589 155.113 31.0756C154.904 31.2925 154.535 31.6487 154.286 31.8579C154.043 32.0667 153.494 32.5629 153.074 32.9496C152.653 33.3457 151.952 33.9807 151.511 34.3682C151.07 34.7463 150.261 35.4899 149.707 36.0052C149.146 36.5303 148.494 37.078 148.255 37.2205C148.009 37.3727 147.688 37.6227 147.536 37.7805C147.385 37.9477 147.036 38.3125 146.757 38.5986C146.478 38.8942 146.007 39.3398 145.707 39.5984C145.407 39.8665 144.79 40.4696 144.327 40.9432C143.864 41.4264 143.343 41.9308 143.163 42.0708C142.984 42.2108 142.678 42.4886 142.487 42.6764C142.29 42.8739 141.906 43.1928 141.636 43.3839C141.366 43.575 140.974 43.8752 140.763 44.045C140.551 44.2052 140.219 44.503 140.029 44.7003C139.839 44.9069 139.425 45.2839 139.105 45.5433C138.792 45.812 138.371 46.1986 138.181 46.3959C137.984 46.5934 137.595 46.9504 137.313 47.1798C137.031 47.3998 136.714 47.5928 136.622 47.5966C136.516 47.601 136.44 47.5474 136.437 47.4812C136.433 47.4056 136.509 47.1752 136.606 46.9724C136.703 46.7695 136.98 46.2846 137.222 45.9148C137.457 45.5358 137.948 44.7959 138.315 44.2599C138.675 43.7242 139.21 42.9351 139.49 42.5069C139.776 42.0785 140.509 40.9782 141.111 40.0727C141.714 39.1577 142.688 37.6687 143.271 36.7545C143.859 35.8401 144.804 34.428 145.372 33.6187C145.939 32.8188 146.647 31.7479 146.937 31.253C147.232 30.7484 147.637 30.1636 147.834 29.9566C148.036 29.7399 148.342 29.3106 148.507 29.0008C148.679 28.6907 148.946 28.282 149.11 28.0953C149.267 27.8994 149.621 27.364 149.885 26.8985C150.149 26.4331 150.57 25.6109 150.81 25.0612C151.051 24.521 151.323 23.7901 151.414 23.455C151.529 23.062 151.585 22.6904 151.572 22.4164C151.562 22.1896 151.492 21.8421 151.417 21.6558C151.349 21.4693 151.213 21.2477 151.123 21.1756C151.026 21.0944 150.831 21.0362 150.678 21.0425C150.486 21.0505 150.265 21.1638 149.958 21.4132C149.715 21.6221 149.437 21.7851 149.344 21.789C149.251 21.7928 149.055 21.8483 148.911 21.911C148.768 21.9738 148.42 22.1965 148.137 22.407C147.854 22.6176 147.403 22.9109 147.137 23.0544C146.872 23.2074 146.407 23.5013 146.104 23.7126C145.802 23.924 145.453 24.1373 145.329 24.1803C145.205 24.2233 144.914 24.4152 144.684 24.6046C144.454 24.7941 144.08 25.0557 143.848 25.1979C143.615 25.3401 142.942 25.8792 142.342 26.4059C141.749 26.9323 141.129 27.4787 140.97 27.6273C140.811 27.776 140.568 27.9943 140.427 28.1043C140.287 28.2237 139.875 28.5154 139.508 28.7673C139.141 29.0192 138.737 29.3389 138.611 29.4956C138.485 29.6428 138.149 29.9881 137.869 30.2554C137.589 30.5226 137.149 30.9101 136.886 31.1293C136.624 31.3485 136.281 31.6941 136.124 31.8899C135.967 32.0953 135.695 32.3906 135.516 32.54C135.344 32.6986 135.04 33.0142 134.845 33.2495C134.65 33.4849 134.236 33.8807 133.929 34.1302C133.614 34.3704 133.338 34.5712 133.305 34.5726C133.278 34.5737 133.25 34.537 133.248 34.4992C133.246 34.4519 133.306 34.3074 133.373 34.1816C133.447 34.0554 133.594 33.6422 133.696 33.2592C133.81 32.8568 134.08 32.2207 134.343 31.7269C134.594 31.2621 134.872 30.6635 134.972 30.3942C135.066 30.1252 135.261 29.5869 135.402 29.2023C135.544 28.8177 135.732 28.2797 135.813 28.0112C135.9 27.7425 135.983 27.2372 136.007 26.8954C136.031 26.5535 136.047 25.748 136.045 25.1137C136.036 24.0536 136.022 23.9121 135.858 23.3698C135.763 23.0423 135.556 22.5774 135.405 22.328C135.247 22.0789 134.949 21.6746 134.732 21.428C134.515 21.1813 134.223 20.9093 134.079 20.8111C133.935 20.7129 133.615 20.5368 133.363 20.4146C133.112 20.2925 132.822 20.2003 132.716 20.2047C132.61 20.2091 132.295 20.2979 132.015 20.4137C131.741 20.5197 131.171 20.6948 130.757 20.8066C130.225 20.9422 129.815 21.1107 129.363 21.3945C128.937 21.6678 128.644 21.7936 128.484 21.7813C128.317 21.7692 128.235 21.7158 128.216 21.5935C128.198 21.4995 128.197 21.3197 128.211 21.196C128.226 21.0818 128.401 20.6958 128.591 20.3565C128.787 20.0075 129.164 19.2534 129.431 18.6837C129.769 17.9501 129.95 17.4218 130.053 16.9157C130.135 16.5147 130.291 15.8833 130.407 15.5092C130.516 15.1354 130.651 14.4481 130.702 13.982C130.754 13.5159 130.834 12.9445 130.883 12.7152C130.926 12.4862 130.958 12.1724 130.95 12.0117C130.943 11.8511 130.873 11.3427 130.791 10.8726C130.71 10.4026 130.557 9.6798 130.452 9.26755C130.34 8.85557 130.131 8.21089 129.994 7.8378C129.813 7.37186 129.603 6.99234 129.334 6.64366C129.116 6.36864 128.782 6.05105 128.584 5.93615C128.393 5.82098 128.039 5.63679 127.795 5.53326C127.551 5.42973 127.122 5.20131 126.842 5.033C126.384 4.75842 126.223 4.71775 125.329 4.64112C124.782 4.58802 124.101 4.52151 123.827 4.48551C123.553 4.44005 122.564 4.46205 121.637 4.52882C120.71 4.59559 119.627 4.72565 119.226 4.81801C118.831 4.90063 118.251 5.00983 117.941 5.06053C117.631 5.10178 117.052 5.22989 116.653 5.35058C116.246 5.46211 115.714 5.60719 115.472 5.67405C115.222 5.74118 114.484 5.85697 113.829 5.9314C113.175 6.00582 112.259 6.16683 111.786 6.29054C111.32 6.41398 110.61 6.56648 110.221 6.63937C109.826 6.71254 109.484 6.79297 109.453 6.8227C109.421 6.85242 109.105 6.93175 108.743 6.99409C108.387 7.05616 107.876 7.20043 107.608 7.31563C107.341 7.43085 106.653 7.62977 106.075 7.76733C105.496 7.89543 104.773 8.06739 104.465 8.15589C104.157 8.24439 103.331 8.49633 102.631 8.71471C101.93 8.93308 101.092 9.20447 100.765 9.31271C100.444 9.41121 99.9862 9.57218 99.7514 9.66711C99.5162 9.75259 99.0838 9.88411 98.7814 9.95345C98.4856 10.0225 98.1005 10.171 97.9329 10.2821C97.7657 10.4026 97.4088 10.5878 97.1418 10.703C96.8747 10.8183 96.4316 11.007 96.1641 11.1128C95.8966 11.2185 95.2754 11.4336 94.7913 11.5957C94.3071 11.7578 93.6293 12.0415 93.2928 12.2353C92.9558 12.4197 92.5017 12.6562 92.2863 12.7409C92.0715 12.835 91.3803 13.1193 90.7547 13.3819C90.1286 13.6351 89.1925 14.0809 88.6742 14.3675C88.1559 14.6541 87.3715 15.0748 86.9235 15.3016C86.4756 15.5285 85.8207 15.8775 85.4643 16.0722C85.1079 16.2668 84.7001 16.5015 84.5577 16.5831C84.4153 16.6647 84.0775 16.8302 83.8034 16.9363C83.5297 17.0517 82.8434 17.44 82.2822 17.8041C81.721 18.1681 81.0227 18.5853 80.737 18.7296C80.4509 18.8646 80.0184 19.1381 79.7677 19.3189C79.5235 19.4995 79.038 19.7752 78.6997 19.9313C78.3615 20.0873 77.94 20.313 77.7596 20.4341C77.5858 20.5549 77.2625 20.7482 77.0547 20.8515C76.8402 20.9551 76.4467 21.2081 76.1839 21.4178C75.9142 21.6183 75.2685 22.0238 74.7432 22.3012C74.2249 22.5878 73.424 23.0849 72.9676 23.4162C72.5178 23.7473 71.988 24.0722 71.8059 24.1555C71.6166 24.2296 71.4384 24.2559 71.4102 24.2192C71.3819 24.1825 71.4298 23.9249 71.5171 23.6562C71.604 23.378 71.9794 22.586 72.3529 21.8983C72.7261 21.2011 73.1758 20.2925 73.349 19.8687C73.5221 19.4449 73.8099 18.7702 73.9777 18.375C74.1455 17.9799 74.5424 16.7893 74.8593 15.7347C75.1694 14.6803 75.4593 13.6173 75.501 13.3694C75.5427 13.1215 75.5857 12.3243 75.5991 11.6042C75.6166 10.5429 75.5992 10.1649 75.5107 9.68569C75.4411 9.32877 75.2016 8.60012 74.9157 7.87341C74.5698 6.99768 74.2696 6.39465 73.8321 5.69315C73.5018 5.15764 72.9401 4.35712 72.574 3.90831C72.0948 3.31269 71.8024 3.0218 71.475 2.8365C71.2293 2.69518 70.9629 2.53577 70.8874 2.48209C70.8118 2.42841 70.4553 2.18751 70.0991 1.95607C69.743 1.72462 69.2667 1.47922 69.0444 1.41267C68.8217 1.33667 68.4593 1.25698 68.2387 1.22824C68.0181 1.19949 67.5329 1.04914 67.1599 0.884671C66.5223 0.598605 66.4021 0.584644 65.2515 0.556518C64.573 0.537259 63.7544 0.504855 63.4211 0.480775C63.0949 0.465872 62.8031 0.477947 62.7845 0.507121ZM64.6646 2.23781C65.2317 2.29009 66.014 2.39973 66.4034 2.48777C66.7923 2.56636 67.5865 2.78914 68.1734 2.98263C68.7598 3.16667 69.5521 3.49367 69.9339 3.70512C70.3157 3.91656 70.8366 4.26428 71.0791 4.48149C71.3282 4.69842 71.7836 5.20982 72.0945 5.61357C72.4125 6.02649 72.8492 6.70909 73.0685 7.14503C73.2946 7.5807 73.607 8.30632 73.7614 8.77336C73.9219 9.23067 74.0869 9.78249 74.1362 9.98876C74.1794 10.2048 74.2196 10.7901 74.2192 11.3583C74.218 11.9075 74.1918 12.6377 74.1615 12.9893C74.1263 13.3789 73.9875 13.9717 73.7957 14.5667C73.6269 15.085 73.3597 15.9198 73.21 16.4184C73.0536 16.9172 72.8737 17.4833 72.8091 17.6659C72.7378 17.8488 72.5832 18.2434 72.4703 18.5321C72.3574 18.8208 72.0138 19.5831 71.7176 20.2202C71.4148 20.8577 70.8433 22.0081 70.4405 22.7823C70.0377 23.5564 69.6141 24.3125 69.5022 24.4781C69.3964 24.634 69.1813 25.0122 69.0352 25.3023C68.8825 25.5927 68.4886 26.2718 68.1483 26.8161C67.7766 27.3996 67.32 28.015 66.9962 28.3409C66.6976 28.6373 66.1818 29.1226 65.8497 29.4109C65.5179 29.7087 65.0973 30.0954 64.9128 30.2735C64.7284 30.4515 64.5625 30.6004 64.5426 30.6013C64.5227 30.6021 64.3586 30.7888 64.1759 31.0046C63.9936 31.23 63.7029 31.5545 63.5318 31.732C63.3535 31.9003 63.0456 32.2824 62.8398 32.5749C62.6341 32.8675 62.327 33.2684 62.15 33.4651C61.9797 33.6615 61.5996 34.2075 61.3089 34.674C61.0186 35.15 60.6968 35.6652 60.5981 35.8302C60.4924 35.9861 60.3273 36.2959 60.2303 36.4988C60.1267 36.7019 59.978 37.0773 59.8894 37.3177C59.8008 37.5581 59.6559 38.0186 59.5642 38.3348C59.4658 38.6514 59.3519 39.0632 59.3076 39.2544C59.2633 39.4456 59.0831 39.8603 58.9184 40.1795C58.7471 40.4991 58.4174 40.9862 58.1777 41.2612C57.9441 41.5265 57.5684 42.025 57.3511 42.3559C57.1272 42.6871 56.7888 43.1272 56.599 43.3339C56.4026 43.5409 56.1765 43.8248 56.0902 43.9704C56.0039 44.116 55.8097 44.3702 55.6513 44.5377C55.4929 44.7053 55.1717 45.0878 54.9328 45.3818C54.6944 45.6852 54.2691 46.2614 53.9952 46.661C53.7151 47.0702 53.3337 47.5879 53.1453 47.8229C52.9564 48.0485 52.6298 48.4597 52.4232 48.7334C52.2166 49.007 51.7901 49.5549 51.4693 49.947C51.149 50.3484 50.8189 50.826 50.7277 51.0097C50.6432 51.1931 50.3803 51.5449 50.1454 51.7818C49.9039 52.0191 49.5889 52.3919 49.4261 52.607C49.2699 52.8217 49.0664 53.0195 48.9687 53.0615C48.8577 53.1039 48.7304 53.0808 48.5997 52.982C48.4892 52.8919 48.3457 52.6612 48.2703 52.4654C48.186 52.2227 48.0372 52.0206 47.8512 51.8768C47.6241 51.7063 47.4695 51.6654 47.1379 51.6791C46.9058 51.6887 46.5703 51.7594 46.3881 51.8427C46.2126 51.9257 45.8433 52.1303 45.5784 52.2928C45.314 52.4647 44.9199 52.7083 44.7064 52.8307C44.4087 53.004 44.2256 53.2104 43.9158 53.6967C43.6932 54.0562 43.3697 54.6756 43.2027 55.0897C43.0287 55.4946 42.8334 56.0139 42.7638 56.2346C42.6544 56.5989 42.6481 56.7507 42.7182 57.5526C42.7787 58.2887 42.8386 58.5797 43.0296 59.121C43.1593 59.4849 43.2691 59.8496 43.2731 59.9347C43.277 60.0197 43.2508 60.1723 43.2224 60.2776C43.187 60.3738 42.9366 60.7061 42.6579 61.0017C42.3862 61.3064 42.0274 61.7379 41.8589 61.9721C41.6969 62.2061 41.4704 62.4806 41.3558 62.5895C41.2475 62.6887 40.963 63.0034 40.7237 63.2879C40.4909 63.5721 40.0676 64.0442 39.7889 64.3397C39.5102 64.6353 38.9383 65.1987 38.5176 65.5854C38.0974 65.9815 37.556 66.4868 37.3078 66.7244C37.0659 66.9522 36.6886 67.2708 36.4772 67.4405C36.2653 67.6007 35.988 67.7827 35.8647 67.8446C35.7413 67.9065 35.4357 68.0517 35.1828 68.1853C34.9361 68.3091 34.703 68.4418 34.665 68.4813C34.634 68.5299 34.2846 68.7337 33.8893 68.9489L33.176 69.3288L31.6545 69.4675C30.7478 69.5429 30.0184 69.5731 29.8434 69.5235C29.6821 69.4829 29.3136 69.2709 29.0247 69.0556C28.7357 68.8403 28.43 68.55 28.351 68.4207C28.2353 68.2172 28.1917 67.9917 28.1489 67.3496C28.095 66.6133 28.1027 66.4899 28.2439 66.0958C28.3259 65.8557 28.4362 65.5103 28.4876 65.3283C28.539 65.1462 28.5831 64.6615 28.5914 64.2635C28.5984 63.6951 28.6397 63.4377 28.765 63.1295C28.8549 62.9175 29.1174 62.4143 29.3515 62.0164C29.5856 61.6185 29.8579 61.0391 29.9567 60.732C30.0617 60.4152 30.2724 59.9425 30.4331 59.6802C30.5871 59.4182 30.9202 59.0067 31.1622 58.7789C31.4108 58.5509 31.6957 58.2456 31.8085 58.0989C31.9151 57.9619 32.1429 57.7157 32.3146 57.5477C32.48 57.3893 32.8224 57.0343 33.0626 56.7687C33.309 56.4934 33.6616 56.0716 33.8492 55.8177C34.0434 55.5635 34.4412 55.1114 34.7327 54.8059C35.0308 54.5 35.4546 54.0374 35.6745 53.7632C35.8948 53.4984 36.2147 53.0875 36.3904 52.8625C36.5589 52.6282 36.9045 52.1973 37.1567 51.9028C37.4022 51.6086 37.7738 51.1671 37.9751 50.9221C38.183 50.6768 38.5149 50.2369 38.7268 49.9347C38.9322 49.6326 39.2463 49.2409 39.4179 49.0728C39.5962 48.9045 39.863 48.4957 40.0268 48.1576C40.1906 47.8194 40.3479 47.3394 40.3945 47.0535C40.4722 46.5768 40.4691 46.5107 40.3448 46.1181C40.2363 45.7817 40.1294 45.6252 39.791 45.3457C39.5626 45.1468 39.2547 44.9513 39.0995 44.9009C38.9511 44.8502 38.7115 44.8412 38.5669 44.8756C38.4228 44.9194 38.0916 45.0846 37.8333 45.2468C37.575 45.409 37.173 45.7665 36.9398 46.0413C36.7129 46.3063 36.4908 46.5333 36.451 46.5349C36.4113 46.5366 36.2627 46.628 36.122 46.7474C35.9814 46.8668 35.754 47.1224 35.6168 47.3175C35.4801 47.522 35.2982 47.7568 35.2159 47.8454C35.127 47.9343 34.7704 48.413 34.408 48.9109C34.0523 49.4085 33.4079 50.4199 32.9773 51.1668C32.5529 51.904 32.0426 52.7962 31.8399 53.155C31.6434 53.504 31.3915 53.9499 31.2871 54.1342C31.1826 54.3184 30.994 54.6955 30.8736 54.9656C30.7536 55.2451 30.611 55.6108 30.5526 55.7837C30.5011 55.9657 30.3183 56.3236 30.1581 56.5954C29.9975 56.8577 29.7832 57.2548 29.6872 57.4765C29.5845 57.6985 29.3499 58.087 29.1557 58.3412C28.9619 58.6049 28.6265 58.9691 28.4094 59.158C28.1851 59.3377 27.558 59.856 27.0139 60.3046C26.4695 60.7438 25.6875 61.3632 25.2833 61.6735C24.8795 61.9932 24.1413 62.554 23.6469 62.9248C23.1524 63.2956 22.4704 63.7783 22.1352 64.0005C21.8 64.2227 21.2658 64.5951 20.9447 64.8356C20.6306 65.0854 20.1667 65.3981 19.9142 65.5411C19.6688 65.6933 19.2871 65.9174 19.074 66.0493C18.8608 66.1812 18.4651 66.387 18.1984 66.5116C17.9322 66.6457 17.4922 66.9007 17.2216 67.0823C16.9514 67.2734 16.3805 67.5716 15.9569 67.7501C15.5267 67.9289 15.0969 68.1171 14.9859 68.1596C14.882 68.2112 14.5888 68.337 14.335 68.4516C14.0878 68.566 13.6762 68.7156 13.4202 68.783C13.1708 68.8501 12.6809 69.0314 12.3427 69.1874L11.7245 69.4686L9.71498 69.5424C8.02328 69.5934 7.64402 69.5807 7.35281 69.4602C7.1566 69.3831 6.97279 69.2866 6.93126 69.2504C6.89637 69.214 6.66527 69.1005 6.4209 68.9875C6.17654 68.8745 5.87076 68.7262 5.74129 68.6558C5.61183 68.5854 5.36616 68.4441 5.20223 68.3467C5.03831 68.2494 4.68491 67.9326 4.40619 67.6506C4.1341 67.3683 3.82939 66.9549 3.72655 66.7413C3.62371 66.5278 3.46216 66.1936 3.36726 66.0082C3.27236 65.8227 3.04819 65.2828 2.87435 64.8261C2.70009 64.3599 2.50027 63.7716 2.42884 63.5189C2.35697 63.2568 2.27239 62.8626 2.24118 62.6177C2.20377 62.3825 2.17612 61.4936 2.17629 60.632C2.17754 59.5052 2.21697 58.7745 2.32008 57.9843C2.39212 57.3848 2.48372 56.633 2.5224 56.3189C2.55445 56.0051 2.65964 55.4043 2.75321 54.9838C2.85341 54.563 2.95948 53.981 2.99283 53.6956C3.02619 53.4102 3.0928 52.9813 3.13497 52.7428C3.18376 52.5041 3.33842 51.9675 3.48503 51.5448C3.62502 51.1224 3.88684 50.3162 4.05301 49.7412C4.21962 49.1756 4.41275 48.609 4.48047 48.4926C4.54775 48.3667 4.73719 48.0085 4.89479 47.6801C5.05283 47.3611 5.39324 46.6747 5.6491 46.1718C5.91115 45.6591 6.14972 45.2136 6.1882 45.1836C6.22668 45.1536 6.40243 44.7866 6.5897 44.3811C6.77697 43.9757 7.00141 43.5119 7.09434 43.366C7.18064 43.2204 7.37411 42.8053 7.52377 42.4488C7.67343 42.0922 7.95625 41.5976 8.15755 41.3526C8.35841 41.0981 8.67927 40.564 8.87317 40.1583C9.06707 39.7526 9.48043 39.0632 9.77911 38.6248C10.0849 38.1955 10.4353 37.7265 10.5547 37.5795C10.6746 37.442 11.0308 36.9539 11.3353 36.4962C11.6463 36.0383 12.1215 35.3937 12.3981 35.0509C12.6746 34.708 13.0644 34.2279 13.2657 33.9829C13.4665 33.7284 13.6785 33.4261 13.7259 33.3011C13.7799 33.1757 14.0113 32.8632 14.2387 32.6076C14.4665 32.3614 14.8368 31.8916 15.0674 31.5601C15.2913 31.2289 15.5753 30.9047 15.6978 30.8239C15.8141 30.7528 16.0308 30.5545 16.1693 30.3878C16.3082 30.2305 16.5215 29.9566 16.64 29.7907C16.7582 29.6154 17.0174 29.33 17.2085 29.1517C17.3996 28.9734 17.7862 28.5691 18.0641 28.2547C18.3419 27.9402 18.8152 27.3998 19.1187 27.0653C19.4217 26.7214 19.8473 26.2966 20.0578 26.108C20.2684 25.9194 20.4909 25.7018 20.5466 25.6143C20.609 25.5265 20.7909 25.2917 20.9479 25.0959C21.1046 24.8905 21.3461 24.6533 21.488 24.5622C21.6234 24.4714 22.0126 24.1239 22.3426 23.7883C22.6722 23.4433 23.1888 22.9768 23.4904 22.7466C23.7916 22.5069 24.0791 22.2583 24.1291 22.1899C24.1791 22.1216 24.4343 21.8932 24.697 21.6835C24.9602 21.4832 25.3362 21.1363 25.5255 20.9201C25.7219 20.7132 26.1435 20.3454 26.4579 20.1051C26.779 19.8646 27.1956 19.5349 27.3876 19.3754C27.5791 19.2065 27.9573 18.9068 28.2204 18.7066C28.4836 18.5063 28.7454 18.2777 28.7954 18.2093C28.8454 18.141 29.1643 17.8532 29.4965 17.5649C29.8287 17.2765 30.738 16.5382 31.5138 15.9285C32.2891 15.3094 33.247 14.6164 33.6344 14.3731C34.0285 14.1296 34.5618 13.7382 34.8299 13.4999C35.0979 13.2615 35.3346 13.0624 35.3545 13.0615C35.381 13.0604 35.9563 12.7147 36.6413 12.2981C37.3259 11.8721 38.0812 11.3958 38.313 11.2348C38.5451 11.0831 38.9214 10.8876 39.1575 10.8211C39.3866 10.7453 39.7394 10.6171 39.9348 10.5332C40.1303 10.4494 40.4217 10.2858 40.5827 10.175C40.7437 10.0642 40.9162 9.91503 40.9662 9.84668C41.0162 9.77833 41.324 9.53834 41.6393 9.31698C41.9617 9.1048 42.4411 8.83878 42.709 8.74247C42.9765 8.63671 43.5483 8.35739 43.9754 8.11247C44.4026 7.86755 45.0314 7.52905 45.3693 7.36358C45.7067 7.18864 46.1891 6.98877 46.4384 6.92164C46.6878 6.85451 47.0397 6.70738 47.2202 6.58629C47.401 6.47465 47.7048 6.29164 47.8994 6.1889C48.094 6.08617 48.3221 5.9915 48.4083 5.98793C48.5012 5.98409 48.7806 5.84943 49.0323 5.68752C49.291 5.53479 49.7071 5.33766 49.9564 5.27053C50.212 5.19367 50.636 5.02463 50.9022 4.89052C51.1684 4.7564 51.6844 4.56461 52.0451 4.46447C52.4064 4.37377 52.8777 4.22169 53.093 4.13703C53.3088 4.06183 53.8566 3.84031 54.3072 3.67017C54.7573 3.49057 55.3661 3.29494 55.649 3.23588C55.9316 3.16738 56.7498 3.0483 57.4572 2.97168C58.164 2.8856 59.0416 2.7546 59.4041 2.69225C59.7661 2.62046 60.6839 2.49725 61.4442 2.41844C62.2042 2.33018 62.8447 2.24685 62.8567 2.21795C62.8753 2.18877 63.0534 2.16246 63.259 2.15395C63.4645 2.14545 64.0975 2.18553 64.6646 2.23781ZM122.75 27.5293C122.724 27.6913 122.499 28.1551 122.259 28.5627C122.012 28.9706 121.533 29.6722 121.189 30.1315C120.844 30.5908 120.427 31.1951 120.254 31.4674C120.087 31.7394 119.846 32.1376 119.73 32.3507C119.613 32.5544 119.234 33.1382 118.892 33.6447C118.55 34.1512 117.943 35.1043 117.542 35.7742C117.141 36.4441 116.707 37.1154 116.581 37.2721C116.456 37.4288 116.076 37.9748 115.734 38.4908C115.399 38.997 114.954 39.5835 114.744 39.791C114.541 39.9983 114.252 40.3606 114.11 40.5843C113.967 40.8079 113.704 41.1408 113.519 41.3188C113.342 41.5061 113.027 41.8884 112.828 42.1712C112.629 42.4635 112.239 42.9436 111.961 43.2487C111.682 43.5537 111.329 43.9566 111.172 44.1524C111.014 44.3388 110.749 44.6433 110.572 44.8211C110.401 45.0081 110.141 45.2745 110.001 45.4129C109.862 45.5607 109.495 45.9641 109.179 46.318C108.869 46.6622 108.413 47.1356 108.164 47.3637C107.922 47.5915 107.523 48.0057 107.277 48.2904C107.037 48.5749 106.733 48.8811 106.611 48.9808C106.489 49.0805 106.286 49.2783 106.166 49.4158C106.046 49.5534 105.82 49.8279 105.663 50.0332C105.506 50.2291 105.022 50.6846 104.58 51.0343C104.137 51.384 103.578 51.7954 103.327 51.9573C103.081 52.1095 102.733 52.3417 102.567 52.4811C102.394 52.6114 102.126 52.8686 101.962 53.0459C101.797 53.2231 101.383 53.6001 101.031 53.8892C100.583 54.2581 100.344 54.4006 100.19 54.388C100.017 54.3762 99.9745 54.3212 99.9512 54.1044C99.9301 53.9348 99.9727 53.7058 100.062 53.4843C100.146 53.282 100.396 52.7982 100.617 52.4009C100.838 52.0035 101.264 51.1716 101.561 50.5533C101.865 49.9347 102.182 49.3251 102.283 49.2073C102.378 49.0897 102.702 48.6313 103.007 48.1831C103.305 47.7352 103.755 47.1106 104.006 46.8067C104.251 46.4936 104.726 45.849 105.049 45.3527C105.372 44.8659 105.804 44.2894 106.007 44.0821C106.21 43.8749 106.484 43.4848 106.611 43.2144C106.731 42.9349 106.934 42.5761 107.059 42.41C107.184 42.2439 107.463 41.9388 107.686 41.7402C107.909 41.5416 108.299 41.052 108.553 40.6628C108.814 40.2732 109.185 39.8223 109.403 39.6523C109.615 39.4826 109.932 39.1475 110.1 38.9039C110.274 38.6505 110.564 38.3165 110.75 38.1574C110.934 37.9887 111.299 37.5475 111.555 37.1772C111.81 36.8068 112.226 36.3162 112.481 36.0878C112.736 35.8595 113.137 35.4736 113.372 35.2272C113.606 34.9902 113.984 34.6716 114.204 34.5394C114.423 34.3978 114.705 34.1684 114.825 34.0308C114.944 33.8933 115.233 33.5216 115.458 33.2093C115.77 32.7797 115.974 32.5914 116.292 32.4362C116.52 32.3226 116.859 32.0529 117.049 31.8368C117.238 31.6111 117.691 31.2136 118.057 30.9428C118.417 30.6723 118.878 30.2934 119.081 30.1051C119.285 29.9167 119.681 29.569 119.963 29.3395C120.238 29.1103 120.885 28.5912 121.391 28.182C121.898 27.7823 122.374 27.4502 122.44 27.4474C122.506 27.4447 122.557 27.3952 122.555 27.348C122.553 27.2913 122.61 27.251 122.677 27.2483C122.796 27.2433 122.804 27.2714 122.75 27.5293ZM196.055 29.9018C196.111 29.9563 196.158 30.1248 196.165 30.2665C196.173 30.4366 196.091 30.6862 195.957 30.9474C195.835 31.1797 195.573 31.5503 195.377 31.7762C195.181 31.9926 194.763 32.436 194.452 32.7519C194.135 33.068 193.78 33.452 193.661 33.5989C193.542 33.7459 193.268 34.0034 193.056 34.1637C192.844 34.3334 192.382 34.6745 192.029 34.9353C191.675 35.1867 191.083 35.6183 190.711 35.8894C190.338 36.1604 189.701 36.6129 189.296 36.9042C188.89 37.1861 188.477 37.44 188.385 37.4722C188.287 37.5046 188.186 37.4709 188.129 37.3881C188.057 37.268 188.06 37.1921 188.123 36.9717C188.17 36.8278 188.415 36.3915 188.67 36.0211C188.925 35.6413 189.451 34.9378 189.841 34.4577C190.237 33.9679 190.669 33.4008 190.812 33.1961C190.949 32.9821 191.257 32.619 191.499 32.3818C191.733 32.1353 192.124 31.8067 192.362 31.6359C192.599 31.4651 193.009 31.1262 193.271 30.8976C193.615 30.5898 193.997 30.3657 194.629 30.1028C195.137 29.883 195.603 29.7406 195.73 29.7637C195.857 29.7774 195.999 29.8378 196.055 29.9018ZM133.305 34.7241C133.286 34.7533 133.227 34.7652 133.179 34.7388C133.125 34.7126 133.144 34.6834 133.217 34.6804C133.289 34.6679 133.33 34.6946 133.305 34.7241ZM59.6769 42.6573C59.7537 42.8814 59.8405 43.1808 59.874 43.3309C59.9075 43.481 60.0275 43.779 60.1436 43.992C60.2527 44.1958 60.7079 44.8492 61.1531 45.4273C61.592 46.0151 62.1401 46.6647 62.3685 46.8636C62.5974 47.0719 63.036 47.5082 63.3438 47.8458C63.6513 48.174 63.9985 48.5005 64.1085 48.5811C64.2251 48.6615 64.537 48.9421 64.8086 49.2149C65.1704 49.5692 65.4514 49.7565 65.8372 49.9109C66.1554 50.0398 66.682 50.3683 67.13 50.7191C67.5501 51.0425 68.0591 51.4191 68.2645 51.5527C68.4704 51.6956 68.8107 51.8709 69.0139 51.9572C69.2172 52.0435 69.4687 52.1656 69.5645 52.2279C69.667 52.29 69.766 52.4184 69.7964 52.5024C69.8202 52.5866 69.7891 52.7773 69.717 52.9412C69.6444 53.0958 69.4422 53.3219 69.2556 53.4527C69.0751 53.5738 68.8425 53.716 68.7315 53.7585C68.6272 53.8007 68.3074 54.0695 68.0283 54.3557C67.7491 54.6418 67.4063 54.9874 67.2661 55.1163C67.1254 55.2358 66.4402 55.9364 65.7426 56.6565C65.045 57.3765 64.2784 58.1847 64.0316 58.4506C63.7909 58.7067 63.1858 59.2715 62.694 59.699C62.2017 60.117 61.7045 60.5732 61.5912 60.7104C61.4842 60.8379 61.0622 61.1963 60.6646 61.5062C60.2736 61.816 59.6014 62.3646 59.1794 62.7229C58.7579 63.0907 57.9635 63.7295 57.4182 64.1498C56.8733 64.5795 56.1582 65.0636 55.8403 65.2282C55.5161 65.4026 54.8171 65.6588 54.2865 65.8228C53.5981 66.0217 53.0774 66.1095 52.5071 66.1331C51.8639 66.1598 51.6434 66.131 51.418 65.9983C51.2678 65.9098 51.073 65.7191 50.9869 65.5806C50.8726 65.4054 50.8228 65.1897 50.8084 64.8779C50.7975 64.6416 50.8239 64.2049 50.8705 63.919C50.9233 63.6232 51.1271 62.9994 51.3671 62.4402C51.5951 61.91 51.9435 61.2517 52.1435 60.9784C52.3368 60.7052 52.6629 60.2846 52.8572 60.0304C53.0518 59.7856 53.3119 59.5192 53.4278 59.4386C53.5437 59.3581 53.7453 59.2645 53.8762 59.2212C54.0009 59.1877 54.2521 59.0163 54.4232 58.8388C54.5949 58.6707 54.9408 58.3913 55.1849 58.2107C55.4356 58.0299 55.8031 57.7875 56.0097 57.6558C56.2162 57.5242 56.4218 57.3736 56.4586 57.3058C56.5024 57.2472 56.6785 57.0316 56.8559 56.8444C57.0328 56.6477 57.2938 56.4002 57.4344 56.2807C57.5755 56.1707 57.7786 55.9635 57.8918 55.8262C58.0294 55.6406 58.0821 55.487 58.0726 55.279C58.0656 55.1278 58.0224 54.9118 57.9774 54.8001C57.9324 54.6883 57.8097 54.4756 57.7037 54.338C57.6039 54.1906 57.4365 54.0176 57.3336 53.9462C57.2306 53.8747 56.9827 53.8281 56.7838 53.8364C56.5782 53.8449 56.2311 53.9539 56.0105 54.0672C55.7836 54.1902 55.2693 54.5618 54.8655 54.8815C54.4621 55.2107 53.9114 55.6596 53.643 55.8885C53.3745 56.1174 52.9454 56.6086 52.6962 56.9692C52.4409 57.3396 52.0648 57.8286 51.856 58.055C51.6477 58.2909 51.3871 58.5478 51.2783 58.6375C51.1695 58.7273 50.8043 58.8749 50.4634 58.9743C50.1225 59.0736 49.6305 59.2076 49.3736 59.2561C49.1106 59.3143 48.8024 59.4028 48.6857 59.4645C48.5689 59.5261 48.1838 59.6746 47.8239 59.7937C47.4706 59.9124 47.0369 60.0156 46.8579 60.023C46.6192 60.0329 46.4977 59.9906 46.3846 59.8438C46.2857 59.7153 46.2535 59.5935 46.2801 59.4504C46.2948 59.3362 46.3458 59.1447 46.3931 59.0196C46.441 58.904 46.5401 58.7484 46.61 58.6793C46.6803 58.6195 46.8467 58.3381 46.9733 58.0582C47.1066 57.7781 47.4367 57.3005 47.7008 56.9771C47.972 56.6629 48.2817 56.3187 48.3896 56.2101C48.498 56.1109 48.8453 55.7178 49.1669 55.3447C49.4819 54.9718 49.7385 54.6298 49.7368 54.592C49.7346 54.5447 49.9978 54.2024 50.3195 53.8293C50.6345 53.4565 50.9672 53.0356 51.0535 52.89C51.1398 52.7444 51.422 52.3823 51.6804 52.0781C51.9388 51.7739 52.4091 51.1674 52.7148 50.7381C53.0272 50.3086 53.4462 49.742 53.6537 49.4873C53.8612 49.2325 54.1227 48.8524 54.2325 48.6395C54.3423 48.4267 54.5989 48.0847 54.7949 47.8682C54.9913 47.6613 55.2112 47.3871 55.2789 47.2706C55.3466 47.1542 55.5603 46.8897 55.7501 46.683C55.9399 46.4763 56.185 46.1727 56.2832 45.9982C56.3881 45.8234 56.6328 45.5103 56.8354 45.2936C57.0446 45.0766 57.5269 44.4412 57.9136 43.8949C58.3066 43.339 58.7442 42.7433 58.8897 42.5857C59.041 42.409 59.2409 42.2777 59.347 42.2733C59.5061 42.2667 59.5552 42.3215 59.6769 42.6573ZM38.2294 47.6449C38.2599 47.7289 38.2487 47.9187 38.2092 48.0718C38.1698 48.225 38.0662 48.4281 37.9706 48.5173C37.8822 48.6156 37.6242 48.9293 37.399 49.2321C37.1805 49.5347 36.8867 49.9351 36.7552 50.1109C36.6243 50.2963 36.3738 50.6286 36.1907 50.835C36.0075 51.0414 35.7195 51.4226 35.5452 51.676C35.3704 51.9199 35.1138 52.262 34.9819 52.4284C34.8434 52.5951 34.5577 52.8815 34.3529 53.0509C34.1415 53.2207 33.8296 53.5176 33.6589 53.7046C33.4948 53.8913 33.3293 54.0496 33.2962 54.051C33.263 54.0524 33.2343 54.0062 33.2313 53.9401C33.2287 53.8834 33.3553 53.6035 33.5221 53.3315C33.6819 53.0503 33.9882 52.4885 34.2086 52.0817C34.429 51.6748 34.7822 51.1205 35.0021 50.8463C35.2153 50.5724 35.4706 50.202 35.5623 50.0278C35.6539 49.8535 36.0122 49.4126 36.3608 49.0478C36.709 48.6736 37.1195 48.2116 37.2761 48.0063C37.4332 47.8104 37.604 47.6234 37.6557 47.5929C37.7074 47.5624 37.852 47.528 37.9714 47.523C38.1035 47.5081 38.2056 47.5607 38.2294 47.6449ZM46.928 54.0454C47.0398 54.1639 47.0932 54.3132 47.104 54.5495C47.1175 54.8424 47.0582 54.9964 46.7254 55.5593C46.5037 55.9378 46.0593 56.6758 45.7389 57.2193C45.4185 57.7628 45.0645 58.2982 44.9561 58.3974C44.8482 58.506 44.6797 58.5982 44.5802 58.6023C44.4874 58.6062 44.3442 58.5269 44.2736 58.4351C44.1958 58.3342 44.1054 58.1012 44.0702 57.9133C44.0332 57.6876 44.0418 57.441 44.1017 57.1545C44.1624 56.8869 44.3753 56.4614 44.7028 55.9271C44.9882 55.4892 45.3675 54.9243 45.5489 54.6801C45.7369 54.4356 45.9767 54.1606 46.0855 54.0708C46.1943 53.9811 46.3897 53.8973 46.5219 53.8823C46.6678 53.8763 46.8304 53.9453 46.928 54.0454ZM73.7871 54.3351C74.2267 54.6483 74.699 54.9507 74.8475 55.0014C74.9889 55.0428 75.1873 55.1672 75.2982 55.2668C75.4024 55.3666 75.5225 55.5226 75.5676 55.6344C75.6121 55.7367 75.6341 55.9251 75.6199 56.0488C75.6003 56.2011 75.4317 56.4353 75.1331 56.7318C74.8854 56.9787 74.6155 57.3213 74.5301 57.4858C74.4385 57.66 74.2535 57.9707 74.1172 58.1846C73.9809 58.3986 73.6973 58.7322 73.4934 58.9206C73.2895 59.1089 72.9161 59.5126 72.6644 59.8165C72.4131 60.1299 72.0388 60.5147 71.8336 60.6747C71.6218 60.835 71.2675 61.0769 71.0411 61.2093C70.8143 61.3323 70.4427 61.6318 70.2145 61.8685C69.9862 62.1052 69.7425 62.2951 69.6829 62.2976C69.6232 62.3001 69.3618 62.5382 69.1092 62.8232C68.8499 63.1085 68.4806 63.4552 68.2869 63.5768C68.0936 63.7079 67.7986 63.9379 67.6336 64.1057C67.4682 64.2641 67.2307 64.4443 67.1002 64.4971C66.9702 64.5593 66.7718 64.5769 66.6644 64.553C66.5565 64.5196 66.4324 64.4206 66.3945 64.318C66.3357 64.1973 66.342 64.0456 66.4032 63.7874C66.4538 63.5864 66.7216 63.0546 67.0061 62.5978C67.2907 62.141 67.5855 61.6175 67.6634 61.4343C67.7347 61.2515 67.9658 60.7874 68.1747 60.419C68.3765 60.0414 68.6195 59.5484 68.7147 59.3077C68.8033 59.0674 69.0255 58.6984 69.2016 58.4828C69.3776 58.2672 69.6595 57.8957 69.8343 57.6517C70.0024 57.4081 70.2485 56.9813 70.3751 56.7014C70.5079 56.4119 70.8585 55.8009 71.1558 55.3341C71.4466 54.8675 71.7957 54.3702 71.9214 54.2135C72.0536 54.0565 72.2712 53.8771 72.4008 53.8054C72.5366 53.7241 72.7209 53.688 72.8151 53.7125C72.9092 53.737 73.3409 54.0222 73.7871 54.3351ZM79.0733 56.8906C79.319 57.0319 79.6106 57.1619 79.7185 57.1953C79.8329 57.2284 80.0561 57.3139 80.2258 57.3921C80.3954 57.4703 80.7034 57.6658 80.9106 57.8372C81.1174 57.999 81.3502 58.1504 81.424 58.1663C81.4982 58.1916 81.7727 58.237 82.0269 58.2739C82.2876 58.3104 82.9046 58.4364 83.4018 58.5578C83.9326 58.6874 84.4793 58.873 84.7187 59.0241C84.9445 59.1662 85.1994 59.364 85.2909 59.4738C85.4459 59.6663 85.4467 59.6852 85.3485 59.8597C85.2932 59.9566 85.1596 60.0853 85.0424 60.1375C84.9323 60.1988 84.4022 60.3723 83.8575 60.5179C83.3194 60.6633 82.3746 60.9201 81.7579 61.0877C81.1473 61.2455 80.3926 61.4472 80.0844 61.5357C79.7758 61.6148 79.2029 61.7237 78.8002 61.7782C78.4036 61.823 77.8458 61.8272 77.5651 61.7915C77.284 61.7463 76.7926 61.6057 76.4806 61.4671C76.1616 61.3193 75.8147 61.1443 75.6985 61.0734C75.5818 60.993 75.4692 60.8556 75.4392 60.7811C75.4154 60.6969 75.3859 60.4898 75.3785 60.3291C75.3703 60.1496 75.4261 59.92 75.5058 59.7747C75.5788 59.6296 75.8784 59.2101 76.1735 58.8381C76.4682 58.4566 76.7739 58.0273 76.8602 57.8817C76.9465 57.7361 77.2044 57.4224 77.4389 57.176C77.6734 56.9296 77.9485 56.7004 78.0457 56.6491C78.1497 56.5974 78.3216 56.5808 78.429 56.6048C78.543 56.6285 78.8281 56.7587 79.0733 56.8906Z" fill="#4338CA"/>
</svg>
