<svg width="385" height="93" viewBox="0 0 385 93" fill="none" xmlns="http://www.w3.org/2000/svg">
<path d="M62.6908 80.7989C56.8975 80.7989 52.1492 79.104 48.4459 75.7141C46.6976 74.0553 44.8655 71.8555 42.9495 69.1148C41.0202 66.4462 39.2041 63.5613 37.5011 60.4599C35.8113 57.2865 34.3384 54.3294 33.0824 51.5887C29.9096 52.0935 26.9899 52.4181 24.3234 52.5624C22.3527 55.3031 20.6219 57.9356 19.1311 60.4599C17.6402 62.9843 16.4259 65.4004 15.4881 67.7084C15.3352 68.1411 15.1955 68.5017 15.0691 68.7902C15.0161 69.0787 14.9763 69.2951 14.9498 69.4394C14.711 70.7376 14.7621 71.8555 15.103 72.7931C15.4307 73.8029 15.9179 74.3438 16.5646 74.4159C17.138 74.488 17.5882 74.6323 17.915 74.8487C18.2419 75.065 18.4522 75.3175 18.5458 75.606L18.506 75.8223C18.4131 76.3272 17.7434 76.5796 16.4967 76.5796C12.3167 76.5796 10.5716 74.7044 11.2613 70.954C11.3143 70.6655 11.4306 70.2327 11.61 69.6557C11.7762 69.1509 12.0055 68.5017 12.2981 67.7084C14.1003 63.0924 16.8687 58.0077 20.6033 52.4542C19.4229 52.0935 18.1657 51.5526 16.8317 50.8314C15.571 50.1101 14.59 49.0643 13.8886 47.694C13.2006 46.2515 13.0754 44.3402 13.5131 41.9601C13.9773 39.4358 14.9853 37.3442 16.537 35.6853C18.102 33.9544 19.9478 33.0889 22.0745 33.0889C23.7611 33.0889 25.5184 33.7019 27.3462 34.928C27.4796 35.0002 27.6365 35.1444 27.8167 35.3608C28.0702 35.5772 28.4271 35.8296 28.8874 36.1181C29.6012 36.623 30.3287 37.4524 31.0698 38.6064C33.3939 35.9378 35.7281 33.4134 38.0725 31.0334C40.5034 28.5811 42.9511 26.2371 45.4156 24.0013C45.762 23.7128 45.9816 23.3161 46.0745 22.8112L46.1541 22.3785C46.2469 21.8736 46.4232 21.513 46.683 21.2966C47.3758 20.7196 48.7051 20.0705 50.6711 19.3493C51.0776 19.1329 51.3374 18.9165 51.4505 18.7002C51.8967 18.2674 52.4498 18.051 53.1098 18.051C54.1365 18.051 55.0235 18.4117 55.7709 19.1329C56.5315 19.782 56.5655 20.3951 55.8727 20.9721L53.5147 23.0276C51.523 24.6864 49.2083 26.7059 46.5706 29.086C44.2925 31.1055 42.0379 33.1971 39.8067 35.3608C37.5887 37.4524 35.4242 39.6522 33.3131 41.9601C33.7406 42.8256 34.2215 43.7993 34.7559 44.8812C35.2903 45.963 35.8114 47.117 36.3193 48.3431C40.9385 47.5497 45.2675 46.54 49.3063 45.3139C53.4317 44.0157 57.5934 42.3207 61.7914 40.2292C67.0355 37.6327 71.1828 34.8199 74.2332 31.7907C77.2836 28.7614 79.0674 25.8404 79.5847 23.0276C80.2081 19.6378 78.922 16.861 75.7266 14.6973C72.6177 12.4614 67.8367 11.3435 61.3833 11.3435C59.33 11.3435 57.1035 11.4878 54.7037 11.7763C52.304 12.0648 49.6944 12.4975 46.875 13.0745C41.3095 14.2285 35.598 16.1758 29.7407 18.9165C23.8833 21.6572 18.81 25.1192 14.5208 29.3024C13.5417 30.24 12.8119 30.4203 12.3313 29.8433C12.1644 29.5548 12.2139 29.086 12.4799 28.4369C12.6461 27.932 13.1953 27.1387 14.1276 26.0568C17.171 22.667 21.6881 19.6378 27.6788 16.9692C31.6903 15.094 35.8321 13.5072 40.1042 12.209C44.3762 10.9108 48.4486 9.90103 52.3212 9.17979C56.1939 8.45855 59.4868 8.09793 62.2002 8.09793C67.4802 8.09793 72.0608 8.71099 75.942 9.9371C83.4711 12.4614 86.725 16.5004 85.7037 22.0539C85.1467 25.0831 83.2131 28.2205 79.9029 31.4661C76.606 34.6395 72.0089 37.7048 66.1118 40.6619C62.4802 42.465 58.072 44.3042 52.8872 46.1794C47.7156 47.9825 42.5604 49.4971 37.4216 50.7232C37.8694 51.8772 38.5941 53.3197 39.5958 55.0506C40.5975 56.7816 41.6959 58.5847 42.8911 60.4599C44.1728 62.263 45.4312 63.994 46.6661 65.6528C47.9143 67.2396 48.9956 68.5378 49.9099 69.5475C54.9152 75.029 60.5712 77.7697 66.8779 77.7697C72.8179 77.7697 78.3355 75.2814 83.4306 70.3048C83.6038 70.1606 83.8004 70.0885 84.0204 70.0885C84.3137 70.0885 84.5072 70.2327 84.6008 70.5212C84.7678 70.8097 84.7081 71.1343 84.4218 71.4949C81.2115 74.5962 77.707 76.9042 73.9085 78.4188C70.1701 80.0055 66.4308 80.7989 62.6908 80.7989ZM23.0198 48.884C23.5191 48.1628 24.2049 47.2252 25.0771 46.0712C26.0359 44.8451 27.1378 43.4387 28.383 41.8519C27.2612 39.9767 25.8998 38.6064 24.299 37.7409C22.7847 36.8033 21.1843 36.3345 19.4976 36.3345C18.0309 36.3345 17.1451 37.1639 16.84 38.8227C16.3626 41.4192 16.618 43.619 17.6064 45.4221C18.6081 47.1531 20.4126 48.307 23.0198 48.884ZM27.0301 49.2086C27.5435 49.2086 28.2035 49.2086 29.0101 49.2086C29.8301 49.1365 30.8333 49.0643 32.0199 48.9922L30.2763 45.3139C29.6304 46.0351 29.0277 46.7203 28.4683 47.3694C27.9823 48.0185 27.5029 48.6316 27.0301 49.2086ZM67.1674 69.223C64.3074 69.223 63.1095 67.9608 63.5737 65.4365C63.6002 65.2922 63.6467 65.0398 63.713 64.6792C63.8526 64.3186 64.0055 63.8858 64.1717 63.3809C65.4488 60.4239 67.4394 57.575 70.1434 54.8343C72.934 52.0214 75.9883 49.5692 79.3063 47.4776C80.5654 46.6121 82.405 46.1794 84.825 46.1794C86.2183 46.1794 87.3885 46.3958 88.3356 46.8285C89.3693 47.1891 90.0332 47.7661 90.3273 48.5595C90.6347 49.2807 90.7021 50.1101 90.5297 51.0477C90.5032 51.192 90.4267 51.4084 90.3004 51.6969C90.2473 51.9854 90.1509 52.3099 90.0113 52.6705C90.1712 52.5984 90.3979 52.5624 90.6912 52.5624C91.0579 52.5624 91.5045 52.5263 92.0311 52.4542C92.5577 52.382 93.0476 52.3099 93.5009 52.2378C94.0275 52.1657 94.5474 52.1296 95.0608 52.1296H95.5008C96.3074 52.1296 96.3211 52.4542 95.5417 53.1033C94.8489 53.6803 93.976 54.0409 92.9228 54.1851L89.1032 54.6179C87.9985 56.6374 86.3438 58.6568 84.1391 60.6763C82.0077 62.6958 79.7028 64.4628 77.2242 65.9774C74.8323 67.4199 72.6432 68.3575 70.657 68.7902C69.5039 69.0787 68.3407 69.223 67.1674 69.223ZM84.2117 53.1033C84.6517 53.1033 85.1651 53.1033 85.7517 53.1033C86.425 53.0312 87.1716 52.959 87.9915 52.8869C88.0914 52.7427 88.1877 52.4181 88.2806 51.9132C88.5193 50.615 88.1351 49.7135 87.1279 49.2086C86.6076 48.848 85.9074 48.6677 85.0274 48.6677C83.9274 48.6677 82.7244 49.0283 81.4185 49.7495C80.1991 50.3986 78.8666 51.2641 77.421 52.346C78.8681 52.8508 81.1317 53.1033 84.2117 53.1033ZM71.1637 65.4365C71.897 65.4365 72.9834 65.1119 74.4228 64.4628C75.9487 63.7416 77.5511 62.804 79.23 61.65C80.9089 60.496 82.4544 59.2699 83.8665 57.9716C84.2994 57.611 84.7457 57.1783 85.2052 56.6734C85.678 56.0964 86.1874 55.5194 86.7335 54.9424L84.0338 55.267C79.821 55.844 76.0947 56.1685 72.8548 56.2407C70.764 58.8371 69.3761 61.0009 68.6911 62.7318C68.4453 63.6694 68.576 64.3546 69.0831 64.7874C69.5902 65.2201 70.2837 65.4365 71.1637 65.4365ZM89.1964 72.2522C87.5098 72.2522 86.8322 71.3506 87.1638 69.5475C87.4158 68.1772 88.0477 66.7347 89.0596 65.2201L99.9533 48.4513C100.765 47.2252 101.871 45.6024 103.269 43.5829C104.68 41.4913 106.391 38.967 108.401 36.0099C108.601 35.7214 108.807 35.3969 109.02 35.0362C109.307 34.6756 109.593 34.315 109.879 33.9544C110.465 33.161 111.064 32.2955 111.677 31.3579L113.494 28.6533C115.418 25.7683 117.046 23.4964 118.377 21.8375C119.796 20.1066 121.244 18.8083 122.724 17.9429C124.596 16.9331 125.752 16.4283 126.192 16.4283C126.706 16.4283 127.163 16.9331 127.564 17.9429C127.55 18.015 127.544 18.051 127.544 18.051C127.617 18.051 127.647 18.0871 127.634 18.1592C127.554 18.592 127.092 19.3132 126.246 20.3229C125.687 20.9721 124.897 21.8736 123.879 23.0276C122.946 24.1095 121.784 25.4437 120.392 27.0305C115.311 32.7283 110.916 37.8851 107.208 42.5011C103.572 47.117 100.37 51.769 97.6011 56.457C99.7262 54.8703 101.961 53.2836 104.306 51.6969C106.725 50.1101 108.747 48.884 110.373 48.0185C112.638 46.8646 114.541 46.2876 116.081 46.2876C118.428 46.2876 119.323 47.8022 118.766 50.8314C118.155 54.1491 116.608 57.1783 114.124 59.919C111.654 62.5876 108.473 64.9316 104.581 66.9511C100.776 68.8984 96.5614 70.4852 91.9359 71.7113C90.9162 72.0719 90.0031 72.2522 89.1964 72.2522ZM93.7626 68.3575C96.476 68.3575 99.3551 67.4559 102.4 65.6528C105.432 63.9219 108.016 61.8303 110.154 59.3781C112.378 56.8537 113.669 54.6179 114.027 52.6705C114.253 51.4444 114.035 50.4347 113.374 49.6413C112.741 49.4971 111.371 49.9659 109.266 51.0477C107.173 52.0575 104.868 53.4278 102.35 55.1588C99.9181 56.8177 97.6931 58.5486 95.6749 60.3517C93.3991 64.7513 92.3284 67.3838 92.4625 68.2493L93.7626 68.3575ZM122.671 68.5739C121.131 68.5739 119.847 68.1772 118.82 67.3838C117.178 65.9413 116.623 63.7776 117.153 60.8927C117.684 58.0077 119.274 54.9424 121.924 51.6969C124.575 48.4513 128.242 45.4581 132.926 42.7174C133.752 42.2126 134.788 41.9601 136.035 41.9601C137.648 41.9601 138.999 42.3929 140.086 43.2584C141.247 44.1238 141.555 45.2418 141.01 46.6121C140.085 48.848 138.584 50.8314 136.505 52.5624C134.5 54.2933 132.199 55.844 129.6 57.2143C127.088 58.5126 124.509 59.7747 121.864 61.0009C121.75 61.2172 121.637 61.4336 121.524 61.65C121.484 61.8663 121.445 62.0827 121.405 62.2991C121.219 63.3088 121.383 64.2104 121.897 65.0037C122.498 65.725 123.422 66.0856 124.668 66.0856C125.622 66.0856 126.455 65.9413 127.168 65.6528C128.421 65.2201 129.447 64.8234 130.247 64.4628C131.12 64.1022 132.136 63.5613 133.295 62.84C134.455 62.1188 136.047 61.0369 138.072 59.5944C138.985 59.0174 139.515 58.7289 139.661 58.7289C140.101 58.7289 140.188 59.0535 139.922 59.7026C138.977 60.8566 137.461 62.1188 135.376 63.4891C133.364 64.8595 131.165 66.0495 128.779 67.0593C126.467 68.069 124.431 68.5739 122.671 68.5739ZM123.061 58.0798C123.647 58.0798 124.963 57.5028 127.009 56.3489C129.055 55.1949 131.01 53.9327 132.875 52.5624C136.126 50.038 137.878 48.0907 138.13 46.7203C138.196 46.3597 138.146 46.0351 137.979 45.7466C137.825 45.386 137.528 45.2057 137.088 45.2057C135.695 45.2057 133.05 46.8285 129.153 50.0741C126.482 52.2378 124.451 54.9064 123.061 58.0798ZM138.009 69.6557C137.055 69.6557 136.731 68.8263 137.036 67.1675C137.288 65.7971 137.864 64.4628 138.762 63.1646C141.033 59.9911 143.149 56.8537 145.113 53.7524C146.411 51.8772 147.623 50.0741 148.748 48.3431C149.946 46.6121 151.045 45.0254 152.043 43.5829C152.563 43.1502 153.043 42.9338 153.483 42.9338C154.436 42.9338 154.65 43.3665 154.124 44.232C153.884 44.7369 153.552 45.35 153.126 46.0712C152.786 46.7203 152.347 47.5137 151.808 48.4513C150.078 51.4805 148.99 53.6081 148.544 54.8343C150.929 53.0312 153.324 51.3723 155.729 49.8577C158.221 48.271 160.513 46.9727 162.606 45.963C164.698 44.9533 166.404 44.4484 167.724 44.4484C168.897 44.4484 169.398 44.9172 169.225 45.8548C169.08 46.6482 168.554 47.5137 167.648 48.4513C166.755 49.3168 165.943 49.7495 165.209 49.7495C164.843 49.7495 164.569 49.6413 164.389 49.425C164.182 49.3528 163.749 49.3168 163.089 49.3168C160.742 49.3168 158.08 50.4347 155.102 52.6705C151.978 54.9064 149.024 57.611 146.24 60.7845C143.47 63.8858 141.359 66.5905 139.908 68.8984C139.302 69.4033 138.669 69.6557 138.009 69.6557ZM159.375 77.4451C159.009 77.4451 158.885 77.1206 159.004 76.4714C159.031 76.3272 159.071 76.1108 159.124 75.8223C159.237 75.606 159.357 75.3535 159.483 75.065L166.362 63.3809L174.478 49.7495C173.612 49.6774 172.322 49.7135 170.609 49.8577C168.909 49.9298 167.452 50.0741 166.239 50.2904C165.786 50.3626 165.406 50.4347 165.099 50.5068C164.879 50.5068 164.696 50.5068 164.549 50.5068C163.963 50.5068 163.606 50.2544 163.478 49.7495C163.631 49.3168 164.108 48.9201 164.907 48.5595C165.3 48.4152 165.76 48.307 166.287 48.2349C166.827 48.0907 167.477 47.9464 168.237 47.8022C169.07 47.6579 169.786 47.5497 170.386 47.4776C171.06 47.4055 171.549 47.3334 171.856 47.2612C172.236 47.1891 172.616 47.117 172.996 47.0449C173.376 46.9727 173.829 46.9006 174.356 46.8285C174.809 46.7564 175.299 46.6842 175.825 46.6121C176.352 46.54 176.922 46.4318 177.535 46.2876C178.268 45.4942 179.406 44.0878 180.951 42.0683C182.496 40.0488 184.49 37.3803 186.933 34.0626C188.891 31.394 190.449 29.3024 191.607 27.7878C192.852 26.201 193.705 25.1553 194.164 24.6504C194.983 23.7849 195.833 23.3522 196.713 23.3522C197.153 23.3522 197.34 23.5325 197.273 23.8931C197.26 23.9652 196.991 24.434 196.465 25.2995C195.892 26.0207 194.913 27.355 193.529 29.3024C192.144 31.2497 190.653 33.3774 189.055 35.6853C187.457 37.9933 185.996 40.157 184.671 42.1765C183.346 44.196 182.415 45.6745 181.875 46.6121C182.255 46.54 182.665 46.5039 183.105 46.5039C183.619 46.5039 184.242 46.5039 184.975 46.5039C185.782 46.5039 186.509 46.54 187.155 46.6121C187.889 46.6121 188.505 46.6482 189.006 46.7203C189.992 46.9367 190.453 47.2252 190.386 47.5858C190.36 47.73 189.983 47.9825 189.257 48.3431C188.864 48.4873 188.141 48.6316 187.088 48.7758C186.034 48.9201 184.651 49.0643 182.938 49.2086C182.498 49.2086 182.015 49.2446 181.488 49.3168C180.975 49.3168 180.418 49.3528 179.818 49.425C176.968 52.959 172.881 58.8371 167.555 67.0593C165.658 69.8 164.203 71.9276 163.191 73.4422C162.18 74.9568 161.574 75.8584 161.374 76.1469C160.555 77.0124 159.889 77.4451 159.375 77.4451ZM206.615 92.6993C205.075 92.6993 204.464 91.8338 204.783 90.1029C205.048 88.6604 205.799 86.9655 207.038 85.0181C208.063 83.4314 209.161 81.8447 210.333 80.2579C211.491 78.7433 212.76 77.2287 214.139 75.7141C218.707 70.8097 223.116 66.3741 227.366 62.4073C231.615 58.4405 236.045 54.69 240.655 51.1559C245.278 47.5497 250.328 44.0157 255.804 40.5537C257.255 38.2457 258.527 36.1181 259.618 34.1707C260.783 32.2234 261.701 30.4203 262.373 28.7614C262.027 29.0499 260.901 29.9876 258.996 31.5743C257.104 33.0889 254.439 35.2165 251.002 37.9573L243.028 44.232C239.417 47.117 236.376 49.4971 233.905 51.3723C231.447 53.1754 228.928 54.9064 226.35 56.5652C220.44 60.3878 215.835 62.2991 212.535 62.2991C211.729 62.2991 211.222 62.263 211.015 62.1909C208.555 61.6139 207.61 59.7747 208.18 56.6734C208.618 54.2933 209.895 51.3362 212.011 47.8022C214.128 44.2681 216.791 40.5537 220.001 36.659C223.297 32.6922 226.6 29.086 229.91 25.8404C233.307 22.5227 236.824 19.3493 240.461 16.3201C244.171 13.2909 247.822 10.5862 251.413 8.20612C255.017 5.7539 258.252 3.91474 261.118 2.68864C263.983 1.46253 266.919 0.849479 269.926 0.849479C270.512 0.849479 271.129 0.885541 271.776 0.957664C272.423 1.02979 273.099 1.13797 273.806 1.28222C275.353 1.64284 276.557 2.47227 277.419 3.7705C278.293 4.9966 278.565 6.51121 278.233 8.31431C277.901 10.1174 276.927 12.0287 275.309 14.0482C274.563 14.9136 273.647 15.707 272.561 16.4283C271.488 17.0774 270.572 17.474 269.812 17.6183H269.482C268.822 17.6183 268.539 17.3659 268.631 16.861L268.671 16.6446C268.817 15.8513 269.399 14.8776 270.418 13.7236C272.483 11.2714 273.7 9.03555 274.072 7.01607C274.443 4.9966 273.639 3.98687 271.659 3.98687C269.826 3.98687 266.847 5.03267 262.722 7.12426C259.817 8.56674 256.655 10.4059 253.237 12.6417C249.906 14.8055 246.542 17.1495 243.144 19.6738C239.82 22.1982 236.709 24.7586 233.812 27.355C230.914 29.9515 228.03 32.8725 225.16 36.1181C222.363 39.3637 219.99 42.5011 218.039 45.5303C215.889 48.848 214.628 51.5166 214.257 53.536C213.899 55.4834 214.39 56.6013 215.73 56.8898C216.084 56.9619 216.4 57.034 216.68 57.1062C216.974 57.1062 217.194 57.1062 217.34 57.1062C219.76 57.1062 222.45 56.2407 225.408 54.5097C228.366 52.7787 231.587 50.615 235.072 48.0185C238.842 45.0615 242.416 42.1765 245.793 39.3637C249.257 36.4787 252.458 33.6298 255.395 30.817L261.269 25.1913L263.667 22.9194C264.2 22.4145 264.906 22.1621 265.786 22.1621C266.666 22.1621 267.39 22.4145 267.957 22.9194C268.611 23.3521 268.842 23.8931 268.649 24.5422C268.09 25.9847 267.289 27.7517 266.244 29.8433C265.286 31.8628 264.055 34.1707 262.551 36.7672C264.163 35.9738 265.573 35.2887 266.779 34.7117C268.071 34.0626 269.154 33.5577 270.027 33.1971C270.654 32.9807 271.07 32.9086 271.277 32.9807C271.497 32.9807 271.587 33.0889 271.547 33.3053C271.508 33.5216 271.265 33.8462 270.818 34.2789C270.385 34.6395 269.812 34.9641 269.099 35.2526C268.213 35.6853 267.03 36.3345 265.551 37.1999C264.145 38.0654 262.413 39.1112 260.354 40.3373C257.239 45.3139 253.571 50.5068 249.349 55.9161C245.214 61.2533 240.746 66.4102 235.944 71.3867C231.203 76.4354 226.334 80.9792 221.338 85.0181C219.879 86.1721 218.2 87.3261 216.301 88.4801C214.462 89.7062 212.663 90.7159 210.904 91.5093C209.218 92.3026 207.788 92.6993 206.615 92.6993ZM213.879 86.1C215.125 86.1 216.298 85.7033 217.397 84.9099C218.57 84.1166 219.459 83.4675 220.066 82.9626C225.062 78.9237 230.413 73.5504 236.12 66.8429C241.827 60.1354 247.326 52.959 252.619 45.3139C248.582 48.1267 245.031 50.6871 241.966 52.9951C238.902 55.3031 236.058 57.611 233.433 59.919C230.895 62.1548 228.324 64.571 225.72 67.1675C223.189 69.7639 220.409 72.721 217.379 76.0387C215.467 78.0582 213.97 80.2219 212.885 82.5299C212.772 82.7462 212.652 82.9987 212.526 83.2872C212.473 83.5757 212.413 83.9002 212.347 84.2608C212.121 85.4869 212.632 86.1 213.879 86.1ZM254.561 69.6557C253.608 69.6557 253.284 68.8263 253.589 67.1675C253.841 65.7971 254.416 64.4628 255.315 63.1646C257.585 59.9911 259.702 56.8537 261.666 53.7524C262.964 51.8772 264.176 50.0741 265.301 48.3431C266.499 46.6121 267.597 45.0254 268.596 43.5829C269.116 43.1502 269.595 42.9338 270.035 42.9338C270.989 42.9338 271.202 43.3665 270.677 44.232C270.437 44.7369 270.104 45.35 269.678 46.0712C269.339 46.7203 268.9 47.5137 268.361 48.4513C266.63 51.4805 265.542 53.6081 265.097 54.8343C267.482 53.0312 269.877 51.3723 272.282 49.8577C274.774 48.271 277.066 46.9727 279.158 45.963C281.251 44.9533 282.957 44.4484 284.277 44.4484C285.45 44.4484 285.951 44.9172 285.778 45.8548C285.632 46.6482 285.106 47.5137 284.201 48.4513C283.308 49.3168 282.495 49.7495 281.762 49.7495C281.395 49.7495 281.122 49.6413 280.942 49.425C280.735 49.3528 280.302 49.3168 279.642 49.3168C277.295 49.3168 274.633 50.4347 271.655 52.6705C268.53 54.9064 265.576 57.611 262.793 60.7845C260.022 63.8858 257.912 66.5905 256.461 68.8984C255.854 69.4033 255.221 69.6557 254.561 69.6557ZM293.521 70.3048C293.375 70.3048 293.234 70.2688 293.101 70.1967C292.954 70.1967 292.814 70.1606 292.681 70.0885C291.747 69.5836 291.22 68.8624 291.099 67.9248C290.978 66.9871 291.123 65.7971 291.535 64.3546C291.788 63.7776 292.121 62.7679 292.532 61.3254C293.018 59.8829 293.487 58.7289 293.939 57.8635L287.354 63.1646L283.737 66.0856C281.226 68.1772 279.273 69.223 277.88 69.223C277.293 69.223 276.857 69.0066 276.569 68.5739C276.055 67.7805 275.904 66.8068 276.117 65.6528C276.395 64.1382 277.097 62.5155 278.222 60.7845C279.347 59.0535 280.605 57.3947 281.997 55.8079C283.402 54.1491 284.644 52.7787 285.723 51.6969C288.414 49.0283 290.925 46.9367 293.257 45.4221C295.662 43.9075 298.001 43.1502 300.275 43.1502C301.521 43.1502 302.692 43.3665 303.785 43.7993C304.953 44.232 305.957 44.9533 306.798 45.963L306.888 46.0712C306.848 46.2876 306.625 46.5039 306.218 46.7203C306.045 46.8646 305.878 46.9727 305.719 47.0449C305.632 47.117 305.545 47.1891 305.459 47.2612C304.42 48.1267 303.164 49.5692 301.693 51.5887C300.222 53.6081 298.877 55.7358 297.659 57.9716C296.455 60.1354 295.706 62.0106 295.415 63.5973C295.149 65.0398 295.337 66.0135 295.977 66.5183C296.304 66.7347 296.688 66.8429 297.128 66.8429C298.081 66.8429 299.507 66.2659 301.406 65.1119C301.493 65.0398 301.659 64.9316 301.906 64.7874C302.239 64.571 302.695 64.2825 303.275 63.9219C303.941 63.4891 304.458 63.2728 304.824 63.2728C305.191 63.2728 305.348 63.417 305.295 63.7055C305.215 64.1382 304.829 64.6431 304.136 65.2201C303.63 65.5807 303.044 65.9774 302.377 66.4102C301.784 66.8429 301.082 67.2756 300.269 67.7084C299.023 68.5017 297.773 69.1148 296.52 69.5475C295.254 70.0524 294.255 70.3048 293.521 70.3048ZM282.364 63.3809C283.904 63.3809 287.176 61.1451 292.178 56.6734C293.503 55.4473 294.706 54.2933 295.785 53.2115C296.877 52.0575 297.889 50.9396 298.821 49.8577C300.526 47.7661 301.231 46.3236 300.937 45.5303C300.797 45.0975 300.396 44.8812 299.736 44.8812C298.93 44.8812 297.75 45.3139 296.198 46.1794C294.658 46.9727 293.036 48.0185 291.331 49.3168C289.699 50.615 288.177 51.9132 286.765 53.2115C285.772 54.2212 284.707 55.6276 283.569 57.4307C282.43 59.2338 281.755 60.7124 281.543 61.8663C281.357 62.8761 281.631 63.3809 282.364 63.3809ZM314.849 68.5739C313.309 68.5739 312.025 68.1772 310.997 67.3838C309.356 65.9413 308.801 63.7776 309.331 60.8927C309.862 58.0077 311.452 54.9424 314.102 51.6969C316.752 48.4513 320.419 45.4581 325.104 42.7174C325.93 42.2126 326.966 41.9601 328.213 41.9601C329.826 41.9601 331.177 42.3929 332.264 43.2584C333.425 44.1238 333.733 45.2418 333.187 46.6121C332.263 48.848 330.761 50.8314 328.683 52.5624C326.678 54.2933 324.376 55.844 321.778 57.2143C319.266 58.5126 316.687 59.7747 314.041 61.0009C313.928 61.2172 313.815 61.4336 313.702 61.65C313.662 61.8663 313.622 62.0827 313.583 62.2991C313.397 63.3088 313.561 64.2104 314.075 65.0037C314.676 65.725 315.6 66.0856 316.846 66.0856C317.8 66.0856 318.633 65.9413 319.346 65.6528C320.599 65.2201 321.625 64.8234 322.425 64.4628C323.298 64.1022 324.314 63.5613 325.473 62.84C326.632 62.1188 328.225 61.0369 330.25 59.5944C331.163 59.0174 331.692 58.7289 331.839 58.7289C332.279 58.7289 332.366 59.0535 332.1 59.7026C331.154 60.8566 329.639 62.1188 327.554 63.4891C325.542 64.8595 323.343 66.0495 320.957 67.0593C318.645 68.069 316.609 68.5739 314.849 68.5739ZM315.238 58.0798C315.825 58.0798 317.141 57.5028 319.187 56.3489C321.232 55.1949 323.188 53.9327 325.053 52.5624C328.304 50.038 330.055 48.0907 330.307 46.7203C330.374 46.3597 330.323 46.0351 330.156 45.7466C330.003 45.386 329.706 45.2057 329.266 45.2057C327.873 45.2057 325.227 46.8285 321.331 50.0741C318.659 52.2378 316.629 54.9064 315.238 58.0798ZM332.041 74.5241C331.234 74.5241 330.584 74.2717 330.09 73.7668C329.67 73.2619 329.563 72.6489 329.769 71.9276C329.734 70.9179 330.153 69.4394 331.024 67.492C331.956 65.6168 333.154 63.4891 334.618 61.109C336.082 58.7289 337.633 56.2767 339.271 53.7524C340.982 51.2281 342.586 48.884 344.084 46.7203L336.356 48.6677H336.136C335.623 48.6677 335.412 48.4152 335.505 47.9104C335.638 47.1891 336.084 46.3597 336.843 45.4221C337.688 44.4123 338.498 43.7993 339.271 43.5829C340.057 43.2944 341.13 43.042 342.49 42.8256C343.85 42.6092 345.546 42.3568 347.58 42.0683C363.826 21.513 373.626 11.0911 376.979 10.8026C380.945 10.3698 382.444 12.786 381.476 18.051C381.357 18.7002 381.138 19.4935 380.818 20.4311C380.586 21.2966 380.284 22.3424 379.912 23.5685C379.706 24.2898 379.383 24.6504 378.943 24.6504C378.649 24.6504 378.432 24.434 378.292 24.0013C378.225 23.5685 378.324 23.0276 378.59 22.3785C379.049 21.0802 379.358 19.9984 379.517 19.1329C380.034 16.3201 379.45 14.9136 377.763 14.9136C376.076 14.9136 372.922 17.5101 368.301 22.703C365.977 25.3716 363.459 28.2926 360.749 31.4661C358.126 34.5674 355.345 37.9212 352.409 41.5274C353.082 41.4553 353.749 41.4192 354.409 41.4192C355.082 41.3471 355.712 41.311 356.299 41.311C356.959 41.311 357.692 41.311 358.499 41.311C359.392 41.2389 360.322 41.1668 361.289 41.0946C361.955 40.6619 362.545 40.4455 363.058 40.4455C364.011 40.4455 364.395 40.9504 364.209 41.9601C364.01 43.042 363.288 43.5829 362.041 43.5829C361.674 43.5829 361.181 43.4747 360.561 43.2584C358.627 43.4026 357.128 43.5829 356.061 43.7993C355.008 43.9435 354.015 44.1599 353.082 44.4484C352.162 44.6648 350.936 44.9533 349.403 45.3139C347.026 48.271 344.758 51.2281 342.601 54.1851C340.457 57.0701 338.61 59.7387 337.059 62.1909C335.581 64.6431 334.697 66.6626 334.405 68.2493C334.14 69.6918 334.587 70.4491 335.747 70.5212C336.853 70.0885 337.627 69.8721 338.067 69.8721C338.58 69.8721 338.803 70.0524 338.737 70.413C338.618 71.0621 337.682 71.9637 335.93 73.1177C334.584 74.0553 333.288 74.5241 332.041 74.5241ZM356.528 68.5739C354.988 68.5739 353.705 68.1772 352.677 67.3838C351.036 65.9413 350.48 63.7776 351.011 60.8927C351.541 58.0077 353.132 54.9424 355.782 51.6969C358.432 48.4513 362.099 45.4581 366.783 42.7174C367.609 42.2126 368.646 41.9601 369.892 41.9601C371.506 41.9601 372.856 42.3929 373.944 43.2584C375.105 44.1238 375.412 45.2418 374.867 46.6121C373.942 48.848 372.441 50.8314 370.363 52.5624C368.358 54.2933 366.056 55.844 363.457 57.2143C360.945 58.5126 358.366 59.7747 355.721 61.0009C355.608 61.2172 355.495 61.4336 355.382 61.65C355.342 61.8663 355.302 62.0827 355.262 62.2991C355.077 63.3088 355.241 64.2104 355.755 65.0037C356.356 65.725 357.279 66.0856 358.526 66.0856C359.479 66.0856 360.312 65.9413 361.025 65.6528C362.278 65.2201 363.305 64.8234 364.104 64.4628C364.977 64.1022 365.993 63.5613 367.153 62.84C368.312 62.1188 369.904 61.0369 371.93 59.5944C372.842 59.0174 373.372 58.7289 373.519 58.7289C373.959 58.7289 374.046 59.0535 373.78 59.7026C372.834 60.8566 371.319 62.1188 369.233 63.4891C367.221 64.8595 365.023 66.0495 362.637 67.0593C360.324 68.069 358.288 68.5739 356.528 68.5739ZM356.918 58.0798C357.505 58.0798 358.821 57.5028 360.866 56.3489C362.912 55.1949 364.867 53.9327 366.733 52.5624C369.984 50.038 371.735 48.0907 371.987 46.7203C372.053 46.3597 372.003 46.0351 371.836 45.7466C371.682 45.386 371.386 45.2057 370.946 45.2057C369.552 45.2057 366.907 46.8285 363.01 50.0741C360.339 52.2378 358.308 54.9064 356.918 58.0798Z" fill="#4338CA"/>
</svg>
