<?xml version="1.0" standalone="no"?>
<!DOCTYPE svg PUBLIC "-//W3C//DTD SVG 20010904//EN"
 "http://www.w3.org/TR/2001/REC-SVG-20010904/DTD/svg10.dtd">
<svg version="1.0" xmlns="http://www.w3.org/2000/svg"
 width="700.000000pt" height="700.000000pt" viewBox="0 0 700.000000 700.000000"
 preserveAspectRatio="xMidYMid meet">
<metadata>
Created by potrace 1.14, written by Peter Selinger 2001-2017
</metadata>
<g transform="translate(0.000000,700.000000) scale(0.100000,-0.100000)"
fill="#000000" stroke="none">
<path d="M3327 6414 c-1 -1 -38 -5 -82 -9 -95 -8 -125 -11 -185 -21 -46 -7
-51 -8 -110 -19 -19 -4 -46 -9 -60 -11 -54 -10 -252 -65 -346 -97 -488 -166
-950 -485 -1285 -887 -116 -139 -194 -251 -291 -419 -44 -75 -148 -284 -148
-296 0 -3 -9 -24 -19 -48 -75 -161 -160 -481 -195 -732 -32 -227 -25 -628 14
-840 5 -27 12 -66 15 -85 40 -253 170 -610 318 -875 78 -139 261 -405 307
-445 3 -3 18 -21 34 -40 64 -79 248 -260 336 -330 24 -19 49 -40 55 -47 23
-22 221 -160 295 -205 352 -213 712 -339 1152 -402 229 -34 606 -25 857 19
137 24 141 25 242 50 797 202 1488 755 1865 1493 121 238 228 548 269 777 2
17 7 39 9 50 2 11 7 45 11 75 4 30 9 63 11 73 23 127 23 552 -1 717 -10 62
-27 174 -31 195 -2 11 -7 34 -10 50 -43 243 -188 622 -327 856 -259 438 -570
755 -1012 1035 -70 44 -240 131 -365 187 -137 61 -411 147 -545 171 -271 50
-352 58 -593 60 -100 1 -184 1 -185 0z m388 -298 c79 -8 209 -24 246 -31 453
-87 830 -258 1194 -543 71 -56 294 -275 356 -351 231 -281 402 -597 499 -922
40 -136 71 -272 84 -374 3 -22 8 -49 10 -60 9 -43 19 -206 19 -315 2 -198 -16
-380 -54 -560 -33 -155 -90 -344 -134 -445 -8 -16 -23 -52 -35 -80 -79 -186
-219 -416 -364 -595 -68 -85 -276 -296 -350 -355 -277 -224 -539 -370 -855
-475 -80 -27 -157 -51 -171 -54 -14 -3 -56 -12 -95 -20 -92 -20 -119 -24 -185
-32 -30 -3 -58 -8 -61 -10 -11 -6 -227 -18 -329 -18 -93 0 -276 11 -315 19
-11 2 -41 7 -67 10 -26 3 -53 7 -60 10 -7 2 -30 6 -50 9 -63 9 -128 25 -250
61 -294 87 -568 225 -821 412 -126 94 -155 120 -292 258 -276 275 -485 609
-614 979 -33 93 -88 296 -97 356 -3 19 -11 71 -19 115 -28 165 -36 406 -21
609 4 54 9 106 11 115 1 9 6 39 9 66 14 99 58 292 92 397 191 591 561 1077
1075 1411 109 71 343 195 399 212 14 4 30 11 35 15 14 11 268 96 340 114 96
24 216 47 269 52 28 3 53 7 56 9 3 2 53 7 110 10 58 4 106 8 107 9 5 5 262 -1
328 -8z"/>
<path d="M3150 5187 c-3 -3 -43 -8 -90 -11 -47 -4 -94 -9 -105 -12 -67 -15
-300 -19 -430 -8 l-78 7 7 -34 c12 -55 14 -67 31 -181 21 -146 27 -452 28
-1398 0 -974 -5 -1247 -29 -1440 -10 -80 -10 -79 -23 -144 -6 -36 -7 -62 -2
-66 8 -4 493 -6 525 -1 5 0 5 16 2 34 -14 66 -26 144 -32 202 -3 33 -7 78 -10
100 -3 22 -8 271 -11 554 -5 498 -5 514 13 506 11 -5 118 -9 238 -10 l220 -2
85 -120 c84 -117 340 -477 624 -879 78 -110 159 -236 180 -280 21 -43 42 -86
46 -94 7 -13 54 -15 322 -16 173 0 320 2 327 4 7 3 -6 13 -29 24 -81 36 -176
124 -278 258 -32 41 -237 327 -456 635 -219 308 -402 565 -407 571 -5 8 4 17
29 29 21 10 74 41 118 70 271 175 425 471 426 816 0 206 -47 360 -157 515
-128 181 -330 297 -629 360 -35 7 -449 17 -455 11z m341 -172 c160 -42 281
-140 357 -292 61 -121 87 -254 86 -448 -1 -141 -12 -225 -44 -326 -60 -191
-183 -342 -340 -417 -47 -22 -107 -45 -135 -51 -27 -6 -61 -14 -75 -17 -49
-11 -276 -11 -340 0 l-65 11 -3 756 -2 757 42 10 c163 41 397 48 519 17z"/>
</g>
</svg>
